<svg width="15" height="15" viewBox="0 0 15 15" fill="none" xmlns="http://www.w3.org/2000/svg">
<path fill-rule="evenodd" clip-rule="evenodd" d="M7.5 13.1993C4.35786 13.1993 1.80071 10.6429 1.80071 7.49929C1.80071 4.35714 4.35786 1.80143 7.50071 1.80143C10.6429 1.80143 13.1993 4.35714 13.1993 7.5C13.1993 10.6429 10.6421 13.1993 7.5 13.1993ZM7.5 0C11.6357 0 15 3.36429 15 7.5C15 11.6357 11.6357 15 7.5 15C3.36429 15 0 11.6357 0 7.5C0 3.36429 3.36429 0 7.5 0Z" fill="#444444"/>
<path d="M7.49997 2.5C7.1548 2.5 6.87498 2.77981 6.87498 3.12499V6.87499H4.99999C4.65481 6.87499 4.375 7.1548 4.375 7.49998C4.375 7.84515 4.65481 8.12497 4.99999 8.12497H7.49997C7.84515 8.12497 8.12496 7.84515 8.12496 7.49998V3.12502C8.12496 2.77984 7.84515 2.5 7.49997 2.5Z" fill="#444444"/>
</svg>
