<svg width="123" height="123" viewBox="0 0 123 123" fill="none" xmlns="http://www.w3.org/2000/svg">
<path fill-rule="evenodd" clip-rule="evenodd" d="M83.333 65.6443C82.5617 64.8574 82.1296 63.7994 82.1296 62.6974C82.1296 61.5955 82.5617 60.5375 83.333 59.7505L119.86 22.4548C121.879 20.3697 123.005 17.5795 123 14.6771C122.995 11.7747 121.858 8.98874 119.831 6.91125L116.185 3.19925C115.191 2.18453 114.004 1.37877 112.695 0.829358C111.385 0.279942 109.979 -0.00203543 108.558 1.106e-05C107.138 0.00205755 105.733 0.288085 104.424 0.841273C103.116 1.39446 101.932 2.20364 100.941 3.22122L64.4216 40.5243C64.0457 40.9108 63.596 41.2181 63.0993 41.4279C62.6026 41.6377 62.0688 41.7458 61.5296 41.7458C60.9904 41.7458 60.4566 41.6377 59.9599 41.4279C59.4632 41.2181 59.0136 40.9108 58.6376 40.5243L22.0448 3.29443C21.0558 2.27514 19.8723 1.46479 18.5643 0.911419C17.2564 0.358052 15.8506 0.0729334 14.4304 0.0729711H14.4158C12.9939 0.0733187 11.5865 0.3593 10.2773 0.913942C8.96802 1.46858 7.78352 2.28059 6.79408 3.30175L3.14797 7.0284C1.12653 9.11283 -0.00272916 11.9032 4.95321e-06 14.8068C0.00273907 17.7104 1.13726 20.4986 3.16262 22.5793L39.7555 59.8018C40.5219 60.5904 40.9519 61.646 40.9546 62.7457C40.9574 63.8454 40.5326 64.9031 39.7701 65.6956L5.65193 100.531C3.61655 102.603 2.49636 105.363 2.49636 108.314C2.50368 111.243 3.62387 114.01 5.65925 116.075L9.32 119.794C10.3127 120.811 11.499 121.618 12.8088 122.169C14.1186 122.719 15.5255 123.002 16.9463 123C18.3671 122.998 19.7732 122.711 21.0814 122.157C22.3897 121.602 23.5736 120.792 24.5634 119.772L58.6815 84.9292C59.0573 84.5448 59.506 84.2395 60.0013 84.031C60.4967 83.8225 61.0288 83.7151 61.5662 83.7151C62.1037 83.7151 62.6357 83.8225 63.1311 84.031C63.6264 84.2395 64.0752 84.5448 64.4509 84.9292L98.6496 119.706C102.859 123.982 109.705 123.982 113.878 119.684L117.539 115.958C119.558 113.874 120.686 111.085 120.683 108.183C120.681 105.281 119.548 102.494 117.524 100.414L83.333 65.637V65.6443Z" fill="#A1A1A1"/>
</svg>
