<svg width="318" height="318" viewBox="0 0 318 318" fill="none" xmlns="http://www.w3.org/2000/svg">
<path d="M290.872 253.682H283.105V259.737H290.872V253.682Z" fill="#DE8E68"/>
<path d="M267.963 98.1296C267.088 97.4724 260.439 87.9668 258.759 81.2146C257.079 74.4624 256.933 100.978 256.933 100.978L261.097 104.63L267.963 98.1296Z" fill="#FCC486"/>
<path d="M267.083 195.7L258.054 211.499L255.797 162.405L270.186 162.877L267.083 195.7Z" fill="#56CAD8"/>
<path d="M276.432 95.6066C299.315 100.435 292.197 153.17 287.761 157.489C283.325 161.809 250.634 162.612 247.481 159C244.327 155.388 247.714 89.5408 276.432 95.6066Z" fill="#FED385"/>
<path d="M279.647 101.468C279.382 103.223 269.025 101.975 269.476 99.5631L272.11 85.5181L282.281 87.4261C282.281 87.4261 279.914 99.7168 279.647 101.468Z" fill="#D37C59"/>
<path d="M285.649 80.4784C287.109 72.6859 283.748 65.5175 278.142 64.4674C272.536 63.4172 266.808 68.883 265.348 76.6755C263.889 84.4681 267.25 91.6365 272.856 92.6866C278.462 93.7367 284.19 88.2709 285.649 80.4784Z" fill="#DE8E68"/>
<path d="M267.782 55.2524C270.499 55.2524 271.641 57.1074 278.647 57.1074C282.055 57.1074 288.982 57.8335 288.982 66.6474C288.982 72.5675 292.427 73.0074 292.427 76.7174C292.427 78.5724 290.787 83.0774 286.597 83.0774C284.742 83.0774 282.887 79.8974 282.887 78.8374C282.887 77.7774 283.947 76.9824 283.947 76.1874C283.969 72.3582 271.564 70.2302 270.737 66.7852C269.839 67.6094 267.772 70.1507 267.001 71.7964C265.941 71.2531 266.063 70.3707 264.881 69.5624C263.86 68.8708 260.68 67.1006 260.68 63.5761C260.667 61.8244 262.493 55.2524 267.782 55.2524Z" fill="#FD8369"/>
<path d="M284.332 84.5349C286.166 84.5349 287.652 83.0483 287.652 81.2145C287.652 79.3807 286.166 77.894 284.332 77.894C282.498 77.894 281.011 79.3807 281.011 81.2145C281.011 83.0483 282.498 84.5349 284.332 84.5349Z" fill="#DE8E68"/>
<path d="M287.053 158.017L292.237 254.22H282.752L257.508 163.876V158.369L287.053 158.017Z" fill="#74D5DE"/>
<path d="M259.048 55.3584H19.345V232.243H259.048V55.3584Z" fill="#DFDFDF"/>
<path d="M259.048 76.1187H19.345V253.004H259.048V76.1187Z" fill="#F3F3F3"/>
<path d="M271.188 123.243C268.986 124.38 265.79 126.013 263.588 130.345C260.818 129.847 247.038 127.362 237.167 127.505C236.245 129.492 234.681 132.619 235.312 133.046C235.943 133.472 256.194 141.923 270.398 140.643C272.253 140.776 279.715 133.753 279.957 133.186C280.198 132.619 271.188 123.243 271.188 123.243Z" fill="#DE8E68"/>
<path d="M238.497 131.06C239.159 128.773 236.931 126.118 233.519 125.129C230.108 124.141 226.805 125.193 226.142 127.48C225.479 129.768 227.708 132.423 231.119 133.412C234.531 134.4 237.834 133.348 238.497 131.06Z" fill="#DE8E68"/>
<path d="M238.415 51.5981C242.187 51.5981 245.244 48.982 245.244 45.7549C245.244 42.5277 242.187 39.9116 238.415 39.9116C234.644 39.9116 231.586 42.5277 231.586 45.7549C231.586 48.982 234.644 51.5981 238.415 51.5981Z" fill="#DE8E68"/>
<path d="M252.545 43.3911H179.758C176.166 43.3911 173.254 46.3026 173.254 49.8942V76.5744C173.254 80.166 176.166 83.0775 179.758 83.0775H252.545C256.137 83.0775 259.048 80.166 259.048 76.5744V49.8942C259.048 46.3026 256.137 43.3911 252.545 43.3911Z" fill="#F3F3F3"/>
<path d="M173.254 49.8943C173.254 52.8941 164.022 76.1293 114.862 76.1293C114.862 81.1378 175.838 78.6123 175.838 78.6123L176.739 50.3792L173.254 49.8943Z" fill="#F3F3F3"/>
<path d="M292.03 110.158C298.125 117.027 283.153 136.774 280.267 135.958C276.867 134.996 266.521 125.313 266.439 121.961C266.357 118.609 284.512 101.691 292.03 110.158Z" fill="#FED892"/>
<path d="M283.105 258.158V263.095L295.279 278.555L298.92 276.785L291.463 258.158H283.105Z" fill="black"/>
<g clip-path="url(#clip0)">
<path d="M116.777 106.775L116.887 106.772L116.897 106.895L116.757 106.9L116.777 106.775Z" fill="#0BA25E"/>
<path d="M116.35 107.595C116.448 107.455 116.638 107.175 116.735 107.035L116.91 107.008C117.04 108.593 117.505 110.12 117.855 111.663C119.36 118.365 120.88 125.063 122.463 131.745C123.5 136.328 124.658 140.888 125.608 145.488C126.433 148.335 126.875 151.273 127.673 154.125C128.188 156.785 128.995 159.38 129.428 162.055C129.253 162.348 129.078 162.643 128.9 162.935C128.858 163.003 128.768 163.143 128.725 163.213L128.66 163.325C128.65 163.345 128.628 163.388 128.615 163.408C128.518 163.588 128.323 163.945 128.225 164.123C128.208 164.155 128.17 164.22 128.15 164.253L127.973 164.568C127.95 164.605 127.908 164.678 127.888 164.715L127.68 165.078C127.67 165.098 127.648 165.138 127.635 165.158L127.378 165.608C127.355 165.645 127.31 165.725 127.288 165.765C127.263 165.808 127.213 165.89 127.188 165.933L126.935 166.368C126.915 166.4 126.875 166.47 126.855 166.503L126.7 166.765C126.675 166.81 126.62 166.903 126.595 166.948C126.495 167.12 126.298 167.465 126.198 167.64C126.18 167.67 126.143 167.733 126.125 167.765L125.968 168.028C125.943 168.075 125.888 168.165 125.86 168.213C125.768 168.375 125.578 168.698 125.485 168.86C125.463 168.898 125.42 168.975 125.398 169.013L125.21 169.35C125.193 169.38 125.158 169.443 125.14 169.473L124.948 169.81C124.928 169.845 124.888 169.915 124.868 169.95C124.768 170.115 124.573 170.448 124.475 170.615C124.453 170.653 124.408 170.73 124.385 170.77L124.208 171.09C124.19 171.12 124.158 171.178 124.143 171.208L123.938 171.563C123.92 171.595 123.883 171.658 123.865 171.688C123.76 171.868 123.553 172.225 123.448 172.405C123.43 172.438 123.39 172.503 123.37 172.535L123.22 172.783C123.195 172.828 123.143 172.915 123.118 172.96C123.023 173.125 122.835 173.453 122.74 173.618C122.725 173.645 122.69 173.705 122.675 173.733L122.47 174.098C122.455 174.125 122.425 174.178 122.41 174.205L122.2 174.573C122.183 174.6 122.148 174.66 122.13 174.688C122.033 174.853 121.835 175.178 121.738 175.343C121.71 175.385 121.66 175.475 121.633 175.52L121.485 175.795C121.465 175.83 121.428 175.9 121.41 175.933L121.153 176.378C121.133 176.415 121.088 176.49 121.068 176.528C121.045 176.563 121.005 176.635 120.985 176.67C120.563 177.383 120.18 178.118 119.713 178.803C117.05 183.145 114.6 187.623 112.023 192.018C107.838 199.26 103.658 206.503 99.4727 213.745C98.8452 214.873 98.1302 215.953 97.5902 217.13C97.5627 217.17 97.5077 217.25 97.4802 217.29C96.4777 215.845 95.7027 214.25 94.7852 212.75C90.6002 205.503 86.4127 198.258 82.2302 191.008C79.9052 186.93 77.4827 182.903 75.2202 178.788C84.1802 163.325 93.1002 147.835 102.043 132.363C102.05 132.348 102.068 132.32 102.075 132.305L102.32 131.885C102.33 131.868 102.35 131.833 102.363 131.815L102.61 131.393C102.633 131.355 102.678 131.275 102.703 131.238C102.728 131.193 102.778 131.105 102.803 131.06L103.05 130.62C103.068 130.59 103.103 130.53 103.12 130.5L103.305 130.205C103.338 130.158 103.403 130.06 103.435 130.01C103.525 129.875 103.708 129.603 103.8 129.468C103.81 129.423 103.828 129.335 103.838 129.293L104.055 128.875C104.065 128.858 104.085 128.823 104.095 128.805L104.345 128.385C104.37 128.345 104.42 128.26 104.445 128.218C104.473 128.17 104.528 128.073 104.558 128.023L104.768 127.655C104.79 127.615 104.835 127.538 104.858 127.5L105.033 127.193C105.053 127.16 105.093 127.09 105.113 127.055C105.21 126.888 105.405 126.553 105.505 126.385C105.525 126.35 105.565 126.28 105.585 126.245L105.768 125.913C105.783 125.888 105.813 125.833 105.828 125.808L106.068 125.388C106.098 125.338 106.16 125.235 106.193 125.185L106.355 124.94C106.39 124.89 106.458 124.793 106.493 124.745C106.523 124.695 106.585 124.595 106.618 124.545L106.753 124.285C106.798 124.188 106.89 123.993 106.935 123.895L107.073 123.703C107.098 123.668 107.145 123.6 107.17 123.565C107.263 123.488 107.45 123.328 107.543 123.248L107.525 122.955C107.54 122.92 107.575 122.85 107.593 122.815L107.805 122.393C107.823 122.363 107.858 122.3 107.875 122.27L108.063 121.965C108.098 121.915 108.165 121.815 108.2 121.765C108.285 121.625 108.458 121.35 108.543 121.213C108.568 121.163 108.613 121.065 108.638 121.015L108.77 120.728C108.81 120.653 108.895 120.5 108.938 120.423L109.103 120.188C109.138 120.14 109.208 120.045 109.243 119.998C109.273 119.948 109.335 119.848 109.365 119.798L109.488 119.54C109.515 119.483 109.573 119.365 109.6 119.308L109.815 118.893C109.848 118.843 109.91 118.738 109.94 118.685L110.105 118.44C110.14 118.39 110.21 118.295 110.245 118.245C110.278 118.195 110.34 118.093 110.37 118.043L110.498 117.783C110.535 117.71 110.608 117.568 110.643 117.495L110.813 117.215C110.843 117.168 110.903 117.073 110.935 117.025C111.025 116.885 111.208 116.605 111.3 116.468C111.31 116.425 111.333 116.34 111.343 116.298L111.56 115.883C111.568 115.865 111.588 115.833 111.598 115.815L111.848 115.388C111.873 115.345 111.92 115.263 111.945 115.22C111.97 115.18 112.018 115.095 112.043 115.055L112.293 114.618C112.303 114.6 112.323 114.565 112.333 114.545L112.568 114.138C112.58 114.12 112.603 114.083 112.613 114.063L112.865 113.638C112.888 113.598 112.933 113.523 112.955 113.483C112.98 113.44 113.03 113.353 113.055 113.308L113.295 112.885C113.31 112.858 113.34 112.805 113.355 112.78L113.558 112.453C113.59 112.405 113.655 112.308 113.685 112.26C113.778 112.123 113.958 111.848 114.05 111.71C114.058 111.668 114.078 111.583 114.088 111.54L114.3 111.133C114.318 111.103 114.355 111.04 114.373 111.008L114.563 110.71C114.598 110.663 114.663 110.565 114.698 110.515C114.785 110.375 114.96 110.098 115.048 109.958C115.06 109.918 115.083 109.838 115.095 109.798L115.315 109.385C115.325 109.365 115.345 109.33 115.355 109.31L115.61 108.88C115.63 108.843 115.675 108.768 115.698 108.73C115.72 108.688 115.765 108.608 115.788 108.568L116.038 108.123C116.05 108.105 116.07 108.068 116.08 108.05L116.318 107.648C116.325 107.635 116.343 107.608 116.35 107.595Z" fill="#0BA25E"/>
<path d="M116.887 106.772C125.007 106.734 133.129 106.767 141.252 106.754C147.972 106.779 154.697 106.702 161.414 106.792C161.547 107.047 161.682 107.299 161.824 107.552C161.844 107.584 161.882 107.654 161.902 107.689C162.552 108.822 163.212 109.949 163.854 111.084C163.867 111.104 163.887 111.142 163.899 111.159C165.144 113.297 166.384 115.437 167.607 117.587C167.617 117.604 167.639 117.639 167.649 117.659C167.872 118.042 168.102 118.424 168.329 118.809C168.349 118.842 168.387 118.909 168.407 118.944C168.719 119.494 169.034 120.042 169.352 120.589C169.364 120.607 169.384 120.642 169.394 120.662C169.712 121.207 170.024 121.757 170.339 122.307C170.359 122.339 170.397 122.404 170.417 122.437C170.734 122.972 171.042 123.512 171.347 124.052C171.367 124.084 171.404 124.152 171.424 124.184C174.409 129.339 177.387 134.497 180.362 139.659C180.022 141.157 180.844 142.647 180.387 144.152C180.109 148.264 178.557 152.267 175.997 155.497C175.164 156.399 175.972 157.652 175.882 158.722C174.984 159.809 173.829 160.622 172.739 161.499C172.742 162.319 172.744 163.139 172.707 163.962C171.734 164.604 170.619 164.977 169.632 165.597C169.527 165.929 169.419 166.264 169.317 166.602C168.524 166.977 167.677 167.219 166.884 167.599C163.747 166.699 160.642 165.697 157.512 164.769C154.599 163.807 151.617 163.052 148.734 161.992L148.569 161.697C148.554 161.674 148.529 161.629 148.517 161.607L148.279 161.204C148.254 161.162 148.204 161.077 148.179 161.034C148.157 160.997 148.117 160.924 148.094 160.887C147.917 160.572 147.754 160.249 147.609 159.919L147.594 159.887L147.577 159.862C147.467 159.687 147.244 159.334 147.132 159.159C147.119 159.139 147.094 159.099 147.082 159.077L147.009 158.962C146.967 158.889 146.879 158.747 146.837 158.674C146.729 158.492 146.512 158.127 146.404 157.944C146.377 157.899 146.324 157.807 146.297 157.762L146.144 157.502C146.124 157.467 146.084 157.399 146.064 157.364L145.822 156.947C145.812 156.929 145.789 156.894 145.779 156.874L145.524 156.437C145.502 156.397 145.457 156.317 145.434 156.279C145.409 156.234 145.357 156.142 145.332 156.097L145.124 155.732C145.099 155.689 145.049 155.599 145.024 155.557L144.864 155.274C144.842 155.237 144.799 155.162 144.777 155.124C144.679 154.944 144.482 154.587 144.382 154.407C144.372 154.387 144.347 154.344 144.337 154.324L144.269 154.207C144.222 154.137 144.129 153.997 144.082 153.927C143.834 153.512 143.602 153.087 143.379 152.659C143.367 152.639 143.344 152.597 143.334 152.577L143.269 152.462C143.222 152.394 143.127 152.259 143.079 152.194C142.969 151.997 142.749 151.602 142.639 151.404C142.627 151.384 142.602 151.342 142.592 151.319L142.524 151.199C142.474 151.117 142.377 150.954 142.327 150.872L142.112 150.509C142.092 150.474 142.049 150.404 142.027 150.367C141.932 150.202 141.739 149.869 141.642 149.704C141.619 149.667 141.577 149.589 141.554 149.549C141.384 149.267 141.222 148.982 141.062 148.697C141.049 148.674 141.022 148.629 141.009 148.607L140.772 148.199C140.747 148.159 140.699 148.079 140.677 148.037C140.654 147.999 140.612 147.924 140.589 147.887L140.337 147.447C140.324 147.427 140.302 147.384 140.289 147.364L140.084 146.997C140.067 146.967 140.034 146.909 140.017 146.879C139.922 146.712 139.729 146.379 139.634 146.212C139.614 146.177 139.574 146.109 139.554 146.077C139.399 145.819 139.244 145.559 139.094 145.302C132.162 133.272 125.219 121.249 118.272 109.227C117.837 108.477 117.442 107.697 116.909 107.007L116.897 106.894L116.887 106.772Z" fill="#FCCD48"/>
<path d="M116.758 106.899L116.898 106.894L116.91 107.007L116.735 107.034L116.758 106.899Z" fill="#089156"/>
<path d="M116.91 107.007C117.443 107.697 117.838 108.477 118.273 109.227C125.22 121.25 132.163 133.272 139.095 145.302C135.885 150.892 132.65 156.47 129.428 162.055C128.995 159.38 128.188 156.785 127.673 154.125C126.875 151.272 126.433 148.335 125.608 145.487C124.658 140.887 123.5 136.327 122.463 131.745C120.88 125.062 119.36 118.365 117.855 111.662C117.505 110.12 117.04 108.592 116.91 107.007Z" fill="#089156"/>
<path d="M116.318 107.646C116.325 107.634 116.343 107.606 116.35 107.594C116.343 107.606 116.325 107.634 116.318 107.646Z" fill="#089156"/>
<path d="M116.037 108.122C116.05 108.104 116.07 108.067 116.08 108.049C116.07 108.067 116.05 108.104 116.037 108.122Z" fill="#089156"/>
<path d="M115.697 108.729C115.72 108.687 115.765 108.607 115.787 108.567C115.765 108.607 115.72 108.687 115.697 108.729Z" fill="#089156"/>
<path d="M115.61 108.879C115.63 108.842 115.675 108.767 115.698 108.729C115.675 108.767 115.63 108.842 115.61 108.879Z" fill="#089156"/>
<path d="M115.315 109.385C115.325 109.365 115.345 109.33 115.355 109.31C115.345 109.33 115.325 109.365 115.315 109.385Z" fill="#089156"/>
<path d="M115.048 109.956C115.06 109.916 115.083 109.836 115.095 109.796C115.083 109.836 115.06 109.916 115.048 109.956Z" fill="#089156"/>
<path d="M114.697 110.514C114.785 110.374 114.96 110.097 115.047 109.957C114.96 110.097 114.785 110.374 114.697 110.514Z" fill="#089156"/>
<path d="M114.562 110.71C114.598 110.662 114.662 110.565 114.697 110.515C114.662 110.565 114.598 110.662 114.562 110.71Z" fill="#089156"/>
<path d="M114.3 111.132C114.317 111.102 114.355 111.04 114.372 111.007C114.355 111.04 114.317 111.102 114.3 111.132Z" fill="#089156"/>
<path d="M114.05 111.709C114.057 111.666 114.077 111.581 114.087 111.539C114.077 111.581 114.057 111.666 114.05 111.709Z" fill="#089156"/>
<path d="M113.685 112.26C113.778 112.122 113.958 111.847 114.05 111.71C113.958 111.847 113.778 112.122 113.685 112.26Z" fill="#089156"/>
<path d="M113.558 112.452C113.591 112.404 113.656 112.307 113.686 112.259C113.656 112.307 113.591 112.404 113.558 112.452Z" fill="#089156"/>
<path d="M113.295 112.885C113.31 112.857 113.34 112.805 113.355 112.78C113.34 112.805 113.31 112.857 113.295 112.885Z" fill="#089156"/>
<path d="M112.955 113.483C112.98 113.44 113.03 113.353 113.055 113.308C113.03 113.353 112.98 113.44 112.955 113.483Z" fill="#089156"/>
<path d="M112.865 113.636C112.887 113.596 112.932 113.521 112.955 113.481C112.932 113.521 112.887 113.596 112.865 113.636Z" fill="#089156"/>
<path d="M112.568 114.138C112.58 114.12 112.603 114.082 112.613 114.062C112.603 114.082 112.58 114.12 112.568 114.138Z" fill="#089156"/>
<path d="M112.292 114.616C112.302 114.598 112.322 114.563 112.332 114.543C112.322 114.563 112.302 114.598 112.292 114.616Z" fill="#089156"/>
<path d="M111.945 115.22C111.97 115.18 112.018 115.095 112.043 115.055C112.018 115.095 111.97 115.18 111.945 115.22Z" fill="#089156"/>
<path d="M111.848 115.386C111.873 115.344 111.92 115.261 111.945 115.219C111.92 115.261 111.873 115.344 111.848 115.386Z" fill="#089156"/>
<path d="M111.56 115.883C111.568 115.865 111.588 115.833 111.598 115.815C111.588 115.833 111.568 115.865 111.56 115.883Z" fill="#089156"/>
<path d="M111.3 116.466C111.31 116.424 111.332 116.339 111.342 116.296C111.332 116.339 111.31 116.424 111.3 116.466Z" fill="#089156"/>
<path d="M110.935 117.025C111.025 116.885 111.208 116.605 111.3 116.467C111.208 116.605 111.025 116.885 110.935 117.025Z" fill="#089156"/>
<path d="M110.812 117.214C110.842 117.166 110.903 117.071 110.935 117.024C110.903 117.071 110.842 117.166 110.812 117.214Z" fill="#089156"/>
<path d="M110.498 117.783C110.535 117.71 110.608 117.568 110.643 117.495C110.608 117.568 110.535 117.71 110.498 117.783Z" fill="#089156"/>
<path d="M110.246 118.244C110.278 118.194 110.341 118.092 110.371 118.042C110.341 118.092 110.278 118.194 110.246 118.244Z" fill="#089156"/>
<path d="M110.105 118.44C110.14 118.39 110.21 118.295 110.245 118.245C110.21 118.295 110.14 118.39 110.105 118.44Z" fill="#089156"/>
<path d="M109.815 118.892C109.847 118.842 109.91 118.737 109.94 118.685C109.91 118.737 109.847 118.842 109.815 118.892Z" fill="#089156"/>
<path d="M109.487 119.54C109.515 119.483 109.572 119.365 109.6 119.308C109.572 119.365 109.515 119.483 109.487 119.54Z" fill="#089156"/>
<path d="M109.242 119.996C109.272 119.946 109.334 119.846 109.364 119.796C109.334 119.846 109.272 119.946 109.242 119.996Z" fill="#089156"/>
<path d="M109.103 120.187C109.138 120.14 109.208 120.045 109.243 119.997C109.208 120.045 109.138 120.14 109.103 120.187Z" fill="#089156"/>
<path d="M108.77 120.726C108.81 120.651 108.895 120.499 108.938 120.421C108.895 120.499 108.81 120.651 108.77 120.726Z" fill="#089156"/>
<path d="M108.542 121.212C108.567 121.162 108.612 121.065 108.637 121.015C108.612 121.065 108.567 121.162 108.542 121.212Z" fill="#089156"/>
<path d="M108.2 121.764C108.285 121.624 108.458 121.349 108.543 121.211C108.458 121.349 108.285 121.624 108.2 121.764Z" fill="#089156"/>
<path d="M108.062 121.965C108.098 121.915 108.165 121.815 108.2 121.765C108.165 121.815 108.098 121.915 108.062 121.965Z" fill="#089156"/>
<path d="M107.804 122.392C107.822 122.362 107.857 122.299 107.874 122.269C107.857 122.299 107.822 122.362 107.804 122.392Z" fill="#089156"/>
<path d="M107.525 122.955C107.54 122.92 107.575 122.85 107.592 122.815C107.575 122.85 107.54 122.92 107.525 122.955Z" fill="#089156"/>
<path d="M107.17 123.564C107.257 123.411 107.435 123.106 107.525 122.954L107.542 123.246C107.45 123.326 107.262 123.486 107.17 123.564Z" fill="#089156"/>
<path d="M107.072 123.703C107.097 123.668 107.145 123.6 107.17 123.565C107.145 123.6 107.097 123.668 107.072 123.703Z" fill="#089156"/>
<path d="M106.753 124.284C106.798 124.187 106.89 123.992 106.935 123.894C106.89 123.992 106.798 124.187 106.753 124.284Z" fill="#089156"/>
<path d="M106.492 124.743C106.522 124.693 106.584 124.593 106.617 124.543C106.584 124.593 106.522 124.693 106.492 124.743Z" fill="#089156"/>
<path d="M106.355 124.94C106.39 124.89 106.457 124.793 106.492 124.745C106.457 124.793 106.39 124.89 106.355 124.94Z" fill="#089156"/>
<path d="M106.068 125.387C106.098 125.337 106.16 125.235 106.193 125.185C106.16 125.235 106.098 125.337 106.068 125.387Z" fill="#089156"/>
<path d="M105.767 125.913C105.782 125.888 105.812 125.833 105.827 125.808C105.812 125.833 105.782 125.888 105.767 125.913Z" fill="#089156"/>
<path d="M105.505 126.385C105.525 126.35 105.565 126.28 105.585 126.245C105.565 126.28 105.525 126.35 105.505 126.385Z" fill="#089156"/>
<path d="M105.033 127.192C105.053 127.16 105.093 127.09 105.113 127.055C105.093 127.09 105.053 127.16 105.033 127.192Z" fill="#089156"/>
<path d="M104.767 127.655C104.79 127.615 104.835 127.538 104.857 127.5C104.835 127.538 104.79 127.615 104.767 127.655Z" fill="#089156"/>
<path d="M104.445 128.217C104.473 128.17 104.528 128.072 104.558 128.022C104.528 128.072 104.473 128.17 104.445 128.217Z" fill="#089156"/>
<path d="M104.345 128.385C104.37 128.345 104.42 128.26 104.445 128.217C104.42 128.26 104.37 128.345 104.345 128.385Z" fill="#089156"/>
<path d="M104.054 128.875C104.064 128.857 104.084 128.822 104.094 128.805C104.084 128.822 104.064 128.857 104.054 128.875Z" fill="#089156"/>
<path d="M103.8 129.467C103.81 129.422 103.827 129.334 103.837 129.292C103.827 129.334 103.81 129.422 103.8 129.467Z" fill="#089156"/>
<path d="M103.435 130.01C103.525 129.875 103.708 129.602 103.8 129.467C103.708 129.602 103.525 129.875 103.435 130.01Z" fill="#089156"/>
<path d="M103.304 130.204C103.337 130.157 103.402 130.059 103.434 130.009C103.402 130.059 103.337 130.157 103.304 130.204Z" fill="#089156"/>
<path d="M103.05 130.62C103.067 130.59 103.102 130.53 103.12 130.5C103.102 130.53 103.067 130.59 103.05 130.62Z" fill="#089156"/>
<path d="M102.702 131.237C102.727 131.192 102.777 131.105 102.802 131.06C102.777 131.105 102.727 131.192 102.702 131.237Z" fill="#089156"/>
<path d="M102.61 131.392C102.633 131.354 102.678 131.274 102.703 131.237C102.678 131.274 102.633 131.354 102.61 131.392Z" fill="#089156"/>
<path d="M102.32 131.884C102.33 131.866 102.35 131.831 102.363 131.814C102.35 131.831 102.33 131.866 102.32 131.884Z" fill="#089156"/>
<path d="M102.042 132.362C102.05 132.347 102.067 132.32 102.075 132.305C102.067 132.32 102.05 132.347 102.042 132.362Z" fill="#089156"/>
<path d="M128.725 163.212C128.767 163.142 128.857 163.002 128.9 162.935C128.857 163.002 128.767 163.142 128.725 163.212Z" fill="#089156"/>
<path d="M128.615 163.407C128.627 163.387 128.65 163.344 128.66 163.324C128.65 163.344 128.627 163.387 128.615 163.407Z" fill="#089156"/>
<path d="M128.15 164.252C128.17 164.22 128.207 164.155 128.225 164.122C128.207 164.155 128.17 164.22 128.15 164.252Z" fill="#089156"/>
<path d="M127.888 164.714C127.908 164.677 127.95 164.604 127.973 164.567C127.95 164.604 127.908 164.677 127.888 164.714Z" fill="#089156"/>
<path d="M127.635 165.157C127.647 165.137 127.67 165.097 127.68 165.077C127.67 165.097 127.647 165.137 127.635 165.157Z" fill="#089156"/>
<path d="M127.287 165.763C127.31 165.723 127.355 165.643 127.377 165.606C127.355 165.643 127.31 165.723 127.287 165.763Z" fill="#089156"/>
<path d="M127.188 165.932C127.213 165.89 127.262 165.807 127.287 165.765C127.262 165.807 127.213 165.89 127.188 165.932Z" fill="#089156"/>
<path d="M126.855 166.502C126.875 166.47 126.915 166.4 126.935 166.367C126.915 166.4 126.875 166.47 126.855 166.502Z" fill="#089156"/>
<path d="M126.595 166.947C126.62 166.902 126.675 166.81 126.7 166.765C126.675 166.81 126.62 166.902 126.595 166.947Z" fill="#089156"/>
<path d="M126.125 167.765C126.143 167.732 126.18 167.67 126.197 167.64C126.18 167.67 126.143 167.732 126.125 167.765Z" fill="#089156"/>
<path d="M125.86 168.212C125.888 168.164 125.943 168.074 125.968 168.027C125.943 168.074 125.888 168.164 125.86 168.212Z" fill="#089156"/>
<path d="M125.397 169.011C125.42 168.974 125.462 168.896 125.485 168.859C125.462 168.896 125.42 168.974 125.397 169.011Z" fill="#089156"/>
<path d="M125.14 169.471C125.157 169.441 125.192 169.378 125.21 169.348C125.192 169.378 125.157 169.441 125.14 169.471Z" fill="#089156"/>
<path d="M124.867 169.95C124.887 169.915 124.927 169.845 124.947 169.81C124.927 169.845 124.887 169.915 124.867 169.95Z" fill="#089156"/>
<path d="M124.385 170.77C124.407 170.73 124.452 170.652 124.475 170.615C124.452 170.652 124.407 170.73 124.385 170.77Z" fill="#089156"/>
<path d="M124.142 171.207C124.157 171.177 124.19 171.119 124.207 171.089C124.19 171.119 124.157 171.177 124.142 171.207Z" fill="#089156"/>
<path d="M123.865 171.688C123.882 171.657 123.92 171.595 123.937 171.562C123.92 171.595 123.882 171.657 123.865 171.688Z" fill="#089156"/>
<path d="M123.371 172.533C123.391 172.501 123.431 172.436 123.448 172.403C123.431 172.436 123.391 172.501 123.371 172.533Z" fill="#089156"/>
<path d="M123.117 172.959C123.142 172.914 123.194 172.826 123.219 172.781C123.194 172.826 123.142 172.914 123.117 172.959Z" fill="#089156"/>
<path d="M122.675 173.731C122.69 173.703 122.725 173.643 122.74 173.616C122.725 173.643 122.69 173.703 122.675 173.731Z" fill="#089156"/>
<path d="M122.41 174.204C122.425 174.177 122.455 174.124 122.47 174.097C122.455 174.124 122.425 174.177 122.41 174.204Z" fill="#089156"/>
<path d="M122.13 174.688C122.148 174.66 122.183 174.6 122.2 174.573C122.183 174.6 122.148 174.66 122.13 174.688Z" fill="#089156"/>
<path d="M121.633 175.518C121.66 175.473 121.71 175.383 121.738 175.341C121.71 175.383 121.66 175.473 121.633 175.518Z" fill="#089156"/>
<path d="M121.41 175.931C121.428 175.898 121.465 175.828 121.485 175.793C121.465 175.828 121.428 175.898 121.41 175.931Z" fill="#089156"/>
<path d="M121.068 176.526C121.088 176.489 121.133 176.414 121.153 176.376C121.133 176.414 121.088 176.489 121.068 176.526Z" fill="#089156"/>
<path d="M120.985 176.669C121.005 176.634 121.045 176.562 121.068 176.527C121.045 176.562 121.005 176.634 120.985 176.669Z" fill="#089156"/>
<path d="M161.824 107.552C161.844 107.585 161.882 107.655 161.902 107.69C161.882 107.655 161.844 107.585 161.824 107.552Z" fill="#10985B"/>
<path d="M163.855 111.085C163.867 111.105 163.887 111.142 163.9 111.16C163.887 111.142 163.867 111.105 163.855 111.085Z" fill="#10985B"/>
<path d="M167.607 117.588C167.617 117.605 167.639 117.64 167.649 117.66C167.639 117.64 167.617 117.605 167.607 117.588Z" fill="#10985B"/>
<path d="M168.329 118.81C168.349 118.842 168.387 118.91 168.407 118.945C168.387 118.91 168.349 118.842 168.329 118.81Z" fill="#10985B"/>
<path d="M169.352 120.591C169.365 120.608 169.385 120.643 169.395 120.663C169.385 120.643 169.365 120.608 169.352 120.591Z" fill="#10985B"/>
<path d="M170.339 122.307C170.359 122.339 170.397 122.404 170.417 122.437C170.397 122.404 170.359 122.339 170.339 122.307Z" fill="#10985B"/>
<path d="M171.347 124.052C171.367 124.085 171.404 124.152 171.424 124.185C171.404 124.152 171.367 124.085 171.347 124.052Z" fill="#10985B"/>
<path d="M180.362 139.661C184.71 147.193 189.085 154.713 193.397 162.268C193.417 162.301 193.457 162.371 193.477 162.403C193.577 162.568 193.777 162.896 193.875 163.058C193.895 163.091 193.935 163.158 193.955 163.191L194.155 163.533C194.167 163.556 194.192 163.603 194.207 163.626L194.457 164.061C194.482 164.103 194.53 164.191 194.555 164.233C194.577 164.271 194.622 164.348 194.645 164.388L194.89 164.813C194.9 164.831 194.92 164.866 194.93 164.883L195.175 165.303C195.185 165.321 195.205 165.353 195.215 165.371L195.46 165.796C195.485 165.838 195.532 165.921 195.557 165.963C195.58 166.006 195.627 166.088 195.65 166.128L195.902 166.573C195.937 166.661 196.007 166.831 196.042 166.916L196.112 167.053L196.145 167.126L196.2 167.198L196.347 167.421C196.4 167.503 196.502 167.668 196.555 167.751C196.585 167.801 196.65 167.901 196.68 167.951L196.845 168.213C196.895 168.326 196.995 168.553 197.045 168.666L197.12 168.801L197.147 168.853L197.17 168.886C197.28 169.048 197.497 169.376 197.607 169.538C197.635 169.583 197.69 169.673 197.72 169.718L197.87 169.968C197.892 170.008 197.937 170.086 197.96 170.123L198.212 170.566C198.235 170.606 198.28 170.686 198.302 170.726C198.325 170.766 198.37 170.843 198.392 170.883L198.642 171.311C198.652 171.331 198.675 171.368 198.687 171.386L198.915 171.786C198.93 171.811 198.96 171.863 198.975 171.888L199.205 172.291C199.232 172.336 199.285 172.428 199.312 172.473C199.335 172.513 199.382 172.593 199.405 172.633C199.59 172.941 199.767 173.253 199.932 173.573C199.957 173.626 200.007 173.731 200.03 173.783L200.145 174.043C200.175 174.093 200.235 174.196 200.262 174.246C200.3 174.296 200.372 174.391 200.41 174.438L200.582 174.683C200.612 174.731 200.672 174.826 200.705 174.876L200.957 175.313C200.98 175.353 201.025 175.433 201.047 175.473C201.07 175.513 201.115 175.591 201.14 175.631L201.39 176.061C201.4 176.081 201.42 176.116 201.43 176.133L201.667 176.548C201.677 176.566 201.697 176.598 201.707 176.616L201.95 177.038C201.975 177.081 202.025 177.166 202.05 177.211C202.075 177.253 202.125 177.338 202.147 177.381L202.397 177.811C202.407 177.828 202.425 177.863 202.435 177.881L202.7 178.376L202.697 178.601C196.442 176.803 190.287 174.671 184.015 172.938C178.322 171.101 172.577 169.428 166.885 167.601C167.677 167.221 168.525 166.978 169.317 166.603C169.42 166.266 169.527 165.931 169.632 165.598C170.62 164.978 171.735 164.606 172.707 163.963C172.745 163.141 172.742 162.321 172.74 161.501C173.83 160.623 174.985 159.811 175.882 158.723C175.972 157.653 175.165 156.401 175.997 155.498C178.557 152.268 180.11 148.266 180.387 144.153C180.845 142.648 180.022 141.158 180.362 139.661Z" fill="#F9C941"/>
<path d="M202.697 178.601L202.827 178.606L202.9 178.796L202.752 178.806L202.697 178.601Z" fill="#F9C941"/>
<path d="M139.555 146.077C139.575 146.11 139.615 146.177 139.635 146.212C139.615 146.177 139.575 146.11 139.555 146.077Z" fill="#E3B73A"/>
<path d="M140.018 146.88C140.035 146.91 140.068 146.967 140.085 146.997C140.068 146.967 140.035 146.91 140.018 146.88Z" fill="#E3B73A"/>
<path d="M140.29 147.366C140.303 147.386 140.325 147.428 140.338 147.448C140.325 147.428 140.303 147.386 140.29 147.366Z" fill="#E3B73A"/>
<path d="M140.59 147.887C140.612 147.924 140.655 147.999 140.677 148.037C140.655 147.999 140.612 147.924 140.59 147.887Z" fill="#E3B73A"/>
<path d="M140.678 148.037C140.7 148.08 140.748 148.16 140.773 148.2C140.748 148.16 140.7 148.08 140.678 148.037Z" fill="#E3B73A"/>
<path d="M141.01 148.607C141.022 148.63 141.05 148.675 141.062 148.697C141.05 148.675 141.022 148.63 141.01 148.607Z" fill="#E3B73A"/>
<path d="M141.555 149.551C141.577 149.591 141.62 149.668 141.642 149.706C141.62 149.668 141.577 149.591 141.555 149.551Z" fill="#E3B73A"/>
<path d="M142.027 150.368C142.05 150.405 142.092 150.475 142.112 150.51C142.092 150.475 142.05 150.405 142.027 150.368Z" fill="#E3B73A"/>
<path d="M142.327 150.874C142.377 150.956 142.475 151.119 142.525 151.201C142.475 151.119 142.377 150.956 142.327 150.874Z" fill="#E3B73A"/>
<path d="M142.592 151.32C142.602 151.343 142.627 151.385 142.64 151.405C142.627 151.385 142.602 151.343 142.592 151.32Z" fill="#E3B73A"/>
<path d="M143.08 152.195C143.128 152.26 143.223 152.395 143.27 152.463C143.223 152.395 143.128 152.26 143.08 152.195Z" fill="#E3B73A"/>
<path d="M143.335 152.577C143.345 152.597 143.367 152.64 143.38 152.66C143.367 152.64 143.345 152.597 143.335 152.577Z" fill="#E3B73A"/>
<path d="M144.083 153.928C144.13 153.998 144.223 154.138 144.27 154.208C144.223 154.138 144.13 153.998 144.083 153.928Z" fill="#E3B73A"/>
<path d="M144.338 154.324C144.348 154.344 144.373 154.387 144.383 154.407C144.373 154.387 144.348 154.344 144.338 154.324Z" fill="#E3B73A"/>
<path d="M144.777 155.125C144.8 155.163 144.842 155.238 144.865 155.275C144.842 155.238 144.8 155.163 144.777 155.125Z" fill="#E3B73A"/>
<path d="M145.025 155.558C145.05 155.601 145.1 155.691 145.125 155.733C145.1 155.691 145.05 155.601 145.025 155.558Z" fill="#E3B73A"/>
<path d="M145.333 156.097C145.358 156.142 145.41 156.234 145.435 156.279C145.41 156.234 145.358 156.142 145.333 156.097Z" fill="#E3B73A"/>
<path d="M145.435 156.28C145.457 156.317 145.502 156.397 145.525 156.437C145.502 156.397 145.457 156.317 145.435 156.28Z" fill="#E3B73A"/>
<path d="M145.78 156.875C145.79 156.895 145.812 156.93 145.822 156.947C145.812 156.93 145.79 156.895 145.78 156.875Z" fill="#E3B73A"/>
<path d="M146.065 157.366C146.085 157.401 146.125 157.468 146.145 157.503C146.125 157.468 146.085 157.401 146.065 157.366Z" fill="#E3B73A"/>
<path d="M146.298 157.762C146.325 157.807 146.378 157.899 146.405 157.944C146.378 157.899 146.325 157.807 146.298 157.762Z" fill="#E3B73A"/>
<path d="M146.838 158.676C146.88 158.748 146.968 158.891 147.01 158.963C146.968 158.891 146.88 158.748 146.838 158.676Z" fill="#E3B73A"/>
<path d="M147.083 159.077C147.095 159.1 147.12 159.14 147.133 159.16C147.12 159.14 147.095 159.1 147.083 159.077Z" fill="#E3B73A"/>
<path d="M147.577 159.863L147.595 159.888L147.61 159.921C147.602 159.906 147.585 159.878 147.577 159.863Z" fill="#E3B73A"/>
<path d="M148.095 160.887C148.117 160.924 148.157 160.997 148.18 161.034C148.157 160.997 148.117 160.924 148.095 160.887Z" fill="#E3B73A"/>
<path d="M148.18 161.034C148.205 161.077 148.255 161.162 148.28 161.204C148.255 161.162 148.205 161.077 148.18 161.034Z" fill="#E3B73A"/>
<path d="M148.518 161.607C148.53 161.63 148.555 161.675 148.57 161.697C148.555 161.675 148.53 161.63 148.518 161.607Z" fill="#E3B73A"/>
<path d="M148.735 161.993C151.618 163.053 154.6 163.808 157.513 164.77C160.643 165.698 163.748 166.7 166.885 167.6C172.578 169.428 178.323 171.1 184.015 172.938C183.93 174.155 184.17 175.403 183.868 176.598C183.635 177.76 182.245 177.943 181.673 178.87C173.98 178.873 166.29 178.895 158.6 178.863L158.435 178.85C155.258 173.2 151.953 167.62 148.735 161.993Z" fill="#E3B73A"/>
<path d="M193.397 162.268C193.417 162.3 193.457 162.37 193.477 162.403C193.457 162.37 193.417 162.3 193.397 162.268Z" fill="#E8B835"/>
<path d="M193.875 163.058C193.895 163.091 193.935 163.158 193.955 163.191C193.935 163.158 193.895 163.091 193.875 163.058Z" fill="#E8B835"/>
<path d="M194.156 163.533C194.168 163.555 194.193 163.603 194.208 163.625C194.193 163.603 194.168 163.555 194.156 163.533Z" fill="#E8B835"/>
<path d="M194.458 164.061C194.483 164.104 194.53 164.191 194.555 164.234C194.53 164.191 194.483 164.104 194.458 164.061Z" fill="#E8B835"/>
<path d="M194.555 164.232C194.578 164.27 194.623 164.347 194.645 164.387C194.623 164.347 194.578 164.27 194.555 164.232Z" fill="#E8B835"/>
<path d="M194.89 164.812C194.9 164.83 194.92 164.865 194.93 164.882C194.92 164.865 194.9 164.83 194.89 164.812Z" fill="#E8B835"/>
<path d="M195.176 165.303C195.186 165.321 195.206 165.353 195.216 165.371C195.206 165.353 195.186 165.321 195.176 165.303Z" fill="#E8B835"/>
<path d="M195.46 165.795C195.485 165.837 195.532 165.92 195.557 165.962C195.532 165.92 195.485 165.837 195.46 165.795Z" fill="#E8B835"/>
<path d="M195.558 165.963C195.58 166.005 195.628 166.088 195.65 166.128C195.628 166.088 195.58 166.005 195.558 165.963Z" fill="#E8B835"/>
<path d="M195.903 166.573C195.938 166.66 196.008 166.83 196.043 166.915C196.008 166.83 195.938 166.66 195.903 166.573Z" fill="#E8B835"/>
<path d="M196.113 167.053C196.136 167.091 196.178 167.163 196.201 167.198L196.146 167.126L196.113 167.053Z" fill="#E8B835"/>
<path d="M196.348 167.42C196.401 167.502 196.503 167.667 196.556 167.75C196.503 167.667 196.401 167.502 196.348 167.42Z" fill="#E8B835"/>
<path d="M196.555 167.75C196.585 167.8 196.65 167.9 196.68 167.95C196.65 167.9 196.585 167.8 196.555 167.75Z" fill="#E8B835"/>
<path d="M196.846 168.213C196.896 168.325 196.996 168.553 197.046 168.665C196.996 168.553 196.896 168.325 196.846 168.213Z" fill="#E8B835"/>
<path d="M197.12 168.799C197.133 168.822 197.158 168.864 197.17 168.884L197.148 168.852L197.12 168.799Z" fill="#E8B835"/>
<path d="M197.608 169.537C197.635 169.582 197.69 169.672 197.72 169.717C197.69 169.672 197.635 169.582 197.608 169.537Z" fill="#E8B835"/>
<path d="M197.87 169.967C197.893 170.007 197.938 170.085 197.96 170.122C197.938 170.085 197.893 170.007 197.87 169.967Z" fill="#E8B835"/>
<path d="M198.213 170.565C198.235 170.605 198.28 170.685 198.303 170.725C198.28 170.685 198.235 170.605 198.213 170.565Z" fill="#E8B835"/>
<path d="M198.303 170.725C198.325 170.765 198.37 170.842 198.393 170.882C198.37 170.842 198.325 170.765 198.303 170.725Z" fill="#E8B835"/>
<path d="M198.643 171.311C198.653 171.331 198.675 171.369 198.688 171.386C198.675 171.369 198.653 171.331 198.643 171.311Z" fill="#E8B835"/>
<path d="M198.916 171.786C198.931 171.811 198.961 171.863 198.976 171.888C198.961 171.863 198.931 171.811 198.916 171.786Z" fill="#E8B835"/>
<path d="M199.205 172.29C199.233 172.335 199.285 172.428 199.313 172.473C199.285 172.428 199.233 172.335 199.205 172.29Z" fill="#E8B835"/>
<path d="M199.312 172.473C199.335 172.513 199.382 172.593 199.405 172.633C199.382 172.593 199.335 172.513 199.312 172.473Z" fill="#E8B835"/>
<path d="M184.015 172.938C190.288 174.67 196.443 176.803 202.698 178.6L202.753 178.805C195.73 178.965 188.698 178.833 181.673 178.87C182.245 177.943 183.635 177.76 183.868 176.598C184.17 175.403 183.93 174.155 184.015 172.938Z" fill="#E8B835"/>
<path d="M199.933 173.573C199.958 173.625 200.008 173.731 200.03 173.783C200.008 173.731 199.958 173.625 199.933 173.573Z" fill="#E8B835"/>
<path d="M200.145 174.042C200.175 174.092 200.235 174.194 200.263 174.244C200.235 174.194 200.175 174.092 200.145 174.042Z" fill="#E8B835"/>
<path d="M200.263 174.246C200.3 174.296 200.373 174.391 200.41 174.438C200.373 174.391 200.3 174.296 200.263 174.246Z" fill="#E8B835"/>
<path d="M200.583 174.683C200.613 174.731 200.673 174.826 200.705 174.876C200.673 174.826 200.613 174.731 200.583 174.683Z" fill="#E8B835"/>
<path d="M200.958 175.312C200.98 175.352 201.025 175.433 201.048 175.473C201.025 175.433 200.98 175.352 200.958 175.312Z" fill="#E8B835"/>
<path d="M201.048 175.473C201.07 175.513 201.115 175.591 201.14 175.631C201.115 175.591 201.07 175.513 201.048 175.473Z" fill="#E8B835"/>
<path d="M201.39 176.061C201.4 176.081 201.42 176.116 201.43 176.134C201.42 176.116 201.4 176.081 201.39 176.061Z" fill="#E8B835"/>
<path d="M201.668 176.549C201.678 176.567 201.698 176.599 201.708 176.617C201.698 176.599 201.678 176.567 201.668 176.549Z" fill="#E8B835"/>
<path d="M201.95 177.037C201.975 177.08 202.025 177.165 202.05 177.21C202.025 177.165 201.975 177.08 201.95 177.037Z" fill="#E8B835"/>
<path d="M202.051 177.21C202.076 177.252 202.126 177.337 202.148 177.38C202.126 177.337 202.076 177.252 202.051 177.21Z" fill="#E8B835"/>
<path d="M202.397 177.811C202.407 177.829 202.425 177.864 202.435 177.881C202.425 177.864 202.407 177.829 202.397 177.811Z" fill="#E8B835"/>
<path d="M202.701 178.375C202.733 178.433 202.796 178.548 202.828 178.605L202.698 178.6L202.701 178.375Z" fill="#E8B835"/>
<path d="M112.022 192.018C114.599 187.623 117.049 183.145 119.712 178.802C132.619 178.85 145.529 178.73 158.434 178.85L158.599 178.862C152.072 179.072 145.527 178.807 138.999 178.972C137.754 179.775 136.924 181.075 135.732 181.95C134.624 182.757 133.809 183.882 132.752 184.745C131.269 185.838 130.167 187.353 128.662 188.423C126.922 190.265 124.914 191.818 123.159 193.65C121.844 194.66 120.744 195.908 119.519 197.02C118.172 197.998 117.139 199.323 115.879 200.403C115.847 200.43 115.784 200.485 115.752 200.515C115.684 200.568 115.552 200.678 115.484 200.73C115.452 200.758 115.392 200.808 115.359 200.835C114.367 201.603 113.607 202.615 112.632 203.403C112.599 203.43 112.537 203.483 112.507 203.508C112.474 203.535 112.412 203.588 112.379 203.613C110.957 204.78 109.817 206.258 108.324 207.345C106.822 208.835 105.127 210.115 103.699 211.685C101.589 213.42 99.7644 215.468 97.5894 217.13C98.1294 215.953 98.8444 214.873 99.4719 213.745C103.657 206.503 107.837 199.26 112.022 192.018Z" fill="#296AD9"/>
<path d="M97.48 217.289C97.5075 217.249 97.5625 217.169 97.59 217.129L97.5825 217.292L97.48 217.289Z" fill="#296AD9"/>
<path d="M158.6 178.862C166.29 178.895 173.98 178.872 181.673 178.87C188.698 178.832 195.73 178.965 202.753 178.805L202.9 178.795L203 178.822V178.842C195.585 191.66 188.193 204.492 180.778 217.312C153.045 217.305 125.313 217.337 97.5825 217.292L97.59 217.13C99.765 215.467 101.59 213.42 103.7 211.685C105.128 210.115 106.823 208.835 108.325 207.345C109.818 206.257 110.958 204.78 112.38 203.612C112.413 203.587 112.475 203.535 112.508 203.507C112.538 203.482 112.6 203.43 112.633 203.402C113.608 202.615 114.368 201.602 115.36 200.835C115.393 200.807 115.453 200.757 115.485 200.73C115.553 200.677 115.685 200.567 115.753 200.515C115.785 200.485 115.848 200.43 115.88 200.402C117.14 199.322 118.173 197.997 119.52 197.02C120.745 195.907 121.845 194.66 123.16 193.65C124.915 191.817 126.923 190.265 128.663 188.422C130.168 187.352 131.27 185.837 132.753 184.745C133.81 183.882 134.625 182.757 135.733 181.95C136.925 181.075 137.755 179.775 139 178.972C145.528 178.807 152.073 179.072 158.6 178.862Z" fill="#2A71E9"/>
<path d="M115.753 200.516C115.785 200.486 115.848 200.431 115.88 200.403C115.848 200.431 115.785 200.486 115.753 200.516Z" fill="#286EE6"/>
<path d="M115.485 200.731C115.553 200.679 115.685 200.569 115.753 200.516C115.685 200.569 115.553 200.679 115.485 200.731Z" fill="#286EE6"/>
<path d="M115.36 200.836C115.393 200.808 115.453 200.758 115.485 200.731C115.453 200.758 115.393 200.808 115.36 200.836Z" fill="#286EE6"/>
<path d="M112.507 203.508C112.537 203.483 112.6 203.431 112.632 203.403C112.6 203.431 112.537 203.483 112.507 203.508Z" fill="#286EE6"/>
<path d="M112.38 203.614C112.413 203.589 112.475 203.537 112.508 203.509C112.475 203.537 112.413 203.589 112.38 203.614Z" fill="#286EE6"/>
</g>
<defs>
<clipPath id="clip0">
<rect width="128" height="128" fill="white" transform="translate(75 98)"/>
</clipPath>
</defs>
</svg>
