<svg width="123" height="123" viewBox="0 0 21 21" fill="none" xmlns="http://www.w3.org/2000/svg">
<path fill-rule="evenodd" clip-rule="evenodd" d="M8.60845 0H12.3913C12.5963 0 12.7717 0.0946571 12.9174 0.283343C13.0633 0.4725 13.1325 0.696134 13.1243 0.954612L12.7936 12.4088C12.7854 12.6673 12.7049 12.8913 12.5513 13.0799C12.3973 13.269 12.218 13.3636 12.0134 13.3636H8.98674C8.78178 13.3636 8.60249 13.269 8.44883 13.0799C8.29509 12.8912 8.21439 12.6672 8.20652 12.4088L7.8756 0.954612C7.86774 0.696134 7.93668 0.472291 8.08247 0.283343C8.22834 0.0946571 8.40358 0 8.60845 0ZM8.75008 15.75H12.25C12.4868 15.75 12.6919 15.8444 12.8651 16.0334C13.0382 16.2224 13.125 16.446 13.125 16.7045V20.0453C13.125 20.3039 13.0383 20.5277 12.8655 20.7168C12.6921 20.9054 12.4869 21 12.2503 21H8.75008C8.51301 21 8.30811 20.9054 8.13472 20.7168C7.96162 20.5276 7.875 20.3038 7.875 20.0453V16.7045C7.875 16.4459 7.96162 16.2223 8.13472 16.0334C8.30797 15.8446 8.51305 15.75 8.75008 15.75Z" fill="#A1A1A1"/>
</svg>
