<svg width="13" height="15" viewBox="0 0 13 15" fill="none" xmlns="http://www.w3.org/2000/svg">
<path fill-rule="evenodd" clip-rule="evenodd" d="M11.1743 5.30357L11.1636 12.9486C11.1632 13.043 11.1254 13.1335 11.0585 13.2002C10.9915 13.2669 10.9009 13.3043 10.8064 13.3043L2.53786 13.2943C2.44692 13.2939 2.35982 13.2576 2.29559 13.1932C2.23135 13.1288 2.19519 13.0417 2.195 12.9507V2.05786C2.195 1.86214 2.35214 1.70429 2.54714 1.70357C3.89357 1.7 8.645 1.69571 8.645 1.69571C8.75929 1.69571 8.86643 1.75286 8.93 1.84714L11.1157 5.11214C11.1536 5.16929 11.1743 5.23571 11.1743 5.30357ZM8.82571 0C9.39214 0 9.92143 0.282143 10.2364 0.752857L12.5821 4.25571C12.7693 4.535 12.8679 4.86357 12.8679 5.19929V13.2943C12.8679 13.7464 12.6883 14.1801 12.3688 14.4999C12.0492 14.8197 11.6157 14.9996 11.1636 15H2.20571C1.75339 14.9998 1.31964 14.82 0.999801 14.5002C0.679959 14.1804 0.500189 13.7466 0.5 13.2943V1.70571C0.5 0.762857 1.26429 0 2.20571 0H8.82571ZM9.26929 10.2893H4.10571C3.99643 10.2893 3.90857 10.4343 3.90857 10.6136V11.2836C3.90857 11.4621 3.99643 11.6071 4.10571 11.6071H9.27C9.37857 11.6071 9.46714 11.4621 9.46714 11.2836V10.6136C9.46714 10.435 9.37857 10.2893 9.26929 10.2893ZM9.27571 8.02H4.11143C4.00286 8.02 3.91429 8.165 3.91429 8.34357V9.01357C3.91429 9.19286 4.00286 9.33786 4.11214 9.33786H9.27571C9.385 9.33786 9.47286 9.19286 9.47286 9.01357V8.34357C9.47286 8.165 9.385 8.02 9.27571 8.02Z" fill="#444444"/>
</svg>
