<svg width="15" height="15" viewBox="0 0 15 15" fill="none" xmlns="http://www.w3.org/2000/svg">
<g clip-path="url(#clip0)">
<path fill-rule="evenodd" clip-rule="evenodd" d="M1.67714 3.53143C1.67714 3.34143 1.82929 3.18643 2.02 3.18571C2.725 3.18357 4.27571 3.18286 4.27571 3.18286C4.40643 3.18286 4.52571 3.25714 4.585 3.37357L4.83929 3.87714C4.97927 4.15673 5.1945 4.39171 5.46077 4.55563C5.72703 4.71955 6.03375 4.80591 6.34643 4.805L12.6393 4.815C13.0164 4.81571 13.3214 5.12143 13.3214 5.49857L13.3129 10.745C13.3121 11.1229 13.0057 11.4286 12.6279 11.4286L2.36143 11.4186C2.18 11.4184 2.00606 11.3462 1.87777 11.2179C1.74949 11.0897 1.67733 10.9157 1.67714 10.7343V3.53143ZM13.3114 3.12786L6.33643 3.12071L5.98643 2.42786C5.84572 2.14884 5.63033 1.91437 5.36423 1.75054C5.09813 1.58672 4.79177 1.49999 4.47929 1.5H1.68857C1.24073 1.5 0.81124 1.6779 0.494571 1.99457C0.177903 2.31124 0 2.74073 0 3.18857L0 11.4179C0 11.8657 0.177903 12.2952 0.494571 12.6119C0.81124 12.9285 1.24073 13.1064 1.68857 13.1064H13.3114C13.5332 13.1064 13.7527 13.0628 13.9576 12.9779C14.1625 12.893 14.3486 12.7687 14.5054 12.6119C14.6622 12.4551 14.7866 12.2689 14.8715 12.064C14.9563 11.8592 15 11.6396 15 11.4179V4.81643C14.9996 4.36871 14.8216 3.93943 14.505 3.62285C14.1884 3.30626 13.7591 3.12824 13.3114 3.12786Z" fill="#444444"/>
</g>
<defs>
<clipPath id="clip0">
<rect width="15" height="15" fill="white"/>
</clipPath>
</defs>
</svg>
