<svg width="21" height="21" viewBox="0 0 21 21" fill="none" xmlns="http://www.w3.org/2000/svg">
<path d="M7.50211 1.27073C5.12386 2.08448 3.09736 3.86423 1.96861 6.11648C1.57486 6.89348 1.29136 7.71773 1.11811 8.57348C0.687612 10.6945 0.986862 12.9572 1.96336 14.8892C2.59861 16.1492 3.51211 17.2727 4.61461 18.1495C5.65936 18.979 6.87211 19.5985 8.16361 19.9397C9.79111 20.3755 11.5236 20.365 13.1616 19.9922C14.6421 19.651 16.0439 18.9422 17.1621 17.9132C18.3434 16.8265 19.1886 15.3985 19.6349 13.8602C20.1231 12.1855 20.1861 10.3952 19.8816 8.67323H10.6941V12.4847H16.0176C15.8129 13.7027 15.0884 14.8157 14.0646 15.5035C13.4189 15.9392 12.6786 16.2175 11.9121 16.354C11.1456 16.4852 10.3476 16.501 9.58111 16.3487C8.79886 16.1912 8.05861 15.8657 7.40761 15.409C6.36811 14.6792 5.57536 13.6135 5.17111 12.4112C4.75636 11.188 4.75111 9.82823 5.17111 8.61023C5.46511 7.74923 5.94811 6.95648 6.58861 6.30548C7.37611 5.49698 8.39986 4.91948 9.50761 4.68323C10.4526 4.48373 11.4501 4.52048 12.3741 4.79873C13.1616 5.03498 13.8861 5.47073 14.4794 6.03773L16.2749 4.24223C16.5899 3.92198 16.9206 3.61223 17.2251 3.28148C16.3169 2.44148 15.2459 1.76423 14.0804 1.33373C11.9804 0.556734 9.61786 0.540984 7.50211 1.27073Z" fill="white"/>
<path d="M7.50225 1.27061C9.61275 0.540859 11.9805 0.556609 14.0805 1.32836C15.246 1.75886 16.3117 2.43086 17.2253 3.27611C16.9207 3.60686 16.59 3.91661 16.275 4.23686L14.4795 6.03236C13.8862 5.46536 13.1617 5.03486 12.3742 4.79336C11.4502 4.51511 10.4528 4.47311 9.50775 4.67786C8.40525 4.91411 7.3815 5.49161 6.58875 6.30011C5.94825 6.94586 5.46525 7.74386 5.17125 8.60486C4.1055 7.77536 3.03975 6.95111 1.96875 6.12161C3.0975 3.86411 5.124 2.08436 7.50225 1.27061Z" fill="#EA4335"/>
<path d="M1.12363 8.56809C1.29688 7.71758 1.58038 6.88808 1.97413 6.11108C3.03988 6.94058 4.10563 7.76484 5.17663 8.59434C4.75663 9.81759 4.75663 11.1773 5.17663 12.3953C4.11088 13.2248 3.04513 14.0543 1.97938 14.8786C0.992383 12.9518 0.693133 10.6891 1.12363 8.56809Z" fill="#FBBC05"/>
<path d="M10.6942 8.66772H19.8817C20.1862 10.3845 20.1179 12.1747 19.6349 13.8547C19.1887 15.393 18.3434 16.821 17.1622 17.9077L14.0594 15.498C15.0832 14.8102 15.8077 13.6972 16.0124 12.4792H10.6889C10.6942 11.2087 10.6942 9.93822 10.6942 8.66772Z" fill="#4285F4"/>
<path d="M1.96875 14.8839C3.0345 14.0596 4.10025 13.2301 5.166 12.4006C5.5755 13.6029 6.363 14.6686 7.4025 15.3984C8.0535 15.8551 8.799 16.1806 9.576 16.3381C10.3425 16.4956 11.1353 16.4746 11.907 16.3434C12.6735 16.2069 13.4137 15.9286 14.0595 15.4929L17.1623 17.9026C16.044 18.9369 14.6423 19.6404 13.1617 19.9816C11.5238 20.3544 9.79125 20.3649 8.16375 19.9292C6.87225 19.5879 5.6595 18.9736 4.61475 18.1389C3.5175 17.2674 2.604 16.1439 1.96875 14.8839Z" fill="#34A853"/>
</svg>
