<svg width="21" height="21" viewBox="0 0 21 21" fill="none" xmlns="http://www.w3.org/2000/svg">
<mask id="mask0" mask-type="alpha" maskUnits="userSpaceOnUse" x="3" y="0" width="15" height="21">
<path d="M12.3545 0.300537H4.47301C3.70804 0.300537 3.08215 0.926423 3.08215 1.6914V19.3089C3.08215 20.0739 3.70804 20.6998 4.47301 20.6998H16.5271C17.2921 20.6998 17.918 20.0739 17.918 19.3089V5.86397L12.3545 0.300537Z" fill="white"/>
</mask>
<g mask="url(#mask0)">
<path d="M12.3545 0.300537H4.47301C3.70804 0.300537 3.08215 0.926423 3.08215 1.6914V19.3089C3.08215 20.0739 3.70804 20.6998 4.47301 20.6998H16.5271C17.2921 20.6998 17.918 20.0739 17.918 19.3089V5.86397L14.6726 3.54587L12.3545 0.300537Z" fill="#0F9D58"/>
</g>
<mask id="mask1" mask-type="alpha" maskUnits="userSpaceOnUse" x="3" y="0" width="15" height="21">
<path d="M12.3545 0.300537H4.47301C3.70804 0.300537 3.08215 0.926423 3.08215 1.6914V19.3089C3.08215 20.0739 3.70804 20.6998 4.47301 20.6998H16.5271C17.2921 20.6998 17.918 20.0739 17.918 19.3089V5.86397L12.3545 0.300537Z" fill="white"/>
</mask>
<g mask="url(#mask1)">
<path d="M6.79114 10.2683V16.9908H14.209V10.2683H6.79114ZM10.0365 16.0636H7.71838V14.9045H10.0365V16.0636ZM10.0365 14.2091H7.71838V13.05H10.0365V14.2091ZM10.0365 12.3546H7.71838V11.1955H10.0365V12.3546ZM13.2818 16.0636H10.9637V14.9045H13.2818V16.0636ZM13.2818 14.2091H10.9637V13.05H13.2818V14.2091ZM13.2818 12.3546H10.9637V11.1955H13.2818V12.3546Z" fill="#F1F1F1"/>
</g>
<mask id="mask2" mask-type="alpha" maskUnits="userSpaceOnUse" x="3" y="0" width="15" height="21">
<path d="M12.3545 0.300537H4.47301C3.70804 0.300537 3.08215 0.926423 3.08215 1.6914V19.3089C3.08215 20.0739 3.70804 20.6998 4.47301 20.6998H16.5271C17.2921 20.6998 17.918 20.0739 17.918 19.3089V5.86397L12.3545 0.300537Z" fill="white"/>
</mask>
<g mask="url(#mask2)">
<path d="M12.7614 5.45703L17.918 10.6125V5.86386L12.7614 5.45703Z" fill="url(#paint0_linear)"/>
</g>
<mask id="mask3" mask-type="alpha" maskUnits="userSpaceOnUse" x="3" y="0" width="15" height="21">
<path d="M12.3545 0.300537H4.47301C3.70804 0.300537 3.08215 0.926423 3.08215 1.6914V19.3089C3.08215 20.0739 3.70804 20.6998 4.47301 20.6998H16.5271C17.2921 20.6998 17.918 20.0739 17.918 19.3089V5.86397L12.3545 0.300537Z" fill="white"/>
</mask>
<g mask="url(#mask3)">
<path d="M12.3546 0.300537V4.47311C12.3546 5.24156 12.977 5.86397 13.7455 5.86397H17.918L12.3546 0.300537Z" fill="#87CEAC"/>
</g>
<mask id="mask4" mask-type="alpha" maskUnits="userSpaceOnUse" x="3" y="0" width="15" height="21">
<path d="M12.3545 0.300537H4.47301C3.70804 0.300537 3.08215 0.926423 3.08215 1.6914V19.3089C3.08215 20.0739 3.70804 20.6998 4.47301 20.6998H16.5271C17.2921 20.6998 17.918 20.0739 17.918 19.3089V5.86397L12.3545 0.300537Z" fill="white"/>
</mask>
<g mask="url(#mask4)">
<path d="M4.47301 0.300537C3.70804 0.300537 3.08215 0.926423 3.08215 1.6914V1.8073C3.08215 1.04233 3.70804 0.416442 4.47301 0.416442H12.3545V0.300537H4.47301Z" fill="white" fill-opacity="0.2"/>
</g>
<mask id="mask5" mask-type="alpha" maskUnits="userSpaceOnUse" x="3" y="0" width="15" height="21">
<path d="M12.3545 0.300537H4.47301C3.70804 0.300537 3.08215 0.926423 3.08215 1.6914V19.3089C3.08215 20.0739 3.70804 20.6998 4.47301 20.6998H16.5271C17.2921 20.6998 17.918 20.0739 17.918 19.3089V5.86397L12.3545 0.300537Z" fill="white"/>
</mask>
<g mask="url(#mask5)">
<path d="M16.5271 20.5837H4.47301C3.70804 20.5837 3.08215 19.9578 3.08215 19.1929V19.3088C3.08215 20.0737 3.70804 20.6996 4.47301 20.6996H16.5271C17.2921 20.6996 17.918 20.0737 17.918 19.3088V19.1929C17.918 19.9578 17.2921 20.5837 16.5271 20.5837Z" fill="#263238" fill-opacity="0.2"/>
</g>
<mask id="mask6" mask-type="alpha" maskUnits="userSpaceOnUse" x="3" y="0" width="15" height="21">
<path d="M12.3545 0.300537H4.47301C3.70804 0.300537 3.08215 0.926423 3.08215 1.6914V19.3089C3.08215 20.0739 3.70804 20.6998 4.47301 20.6998H16.5271C17.2921 20.6998 17.918 20.0739 17.918 19.3089V5.86397L12.3545 0.300537Z" fill="white"/>
</mask>
<g mask="url(#mask6)">
<path d="M13.7455 5.864C12.977 5.864 12.3546 5.24159 12.3546 4.47314V4.58905C12.3546 5.3575 12.977 5.97991 13.7455 5.97991H17.918V5.864H13.7455Z" fill="#263238" fill-opacity="0.1"/>
</g>
<path d="M12.3545 0.300537H4.47301C3.70804 0.300537 3.08215 0.926423 3.08215 1.6914V19.3089C3.08215 20.0739 3.70804 20.6998 4.47301 20.6998H16.5271C17.2921 20.6998 17.918 20.0739 17.918 19.3089V5.86397L12.3545 0.300537Z" fill="url(#paint1_radial)"/>
<defs>
<linearGradient id="paint0_linear" x1="15.3399" y1="5.89968" x2="15.3399" y2="10.6132" gradientUnits="userSpaceOnUse">
<stop stop-color="#263238" stop-opacity="0.2"/>
<stop offset="1" stop-color="#263238" stop-opacity="0.02"/>
</linearGradient>
<radialGradient id="paint1_radial" cx="0" cy="0" r="1" gradientUnits="userSpaceOnUse" gradientTransform="translate(3.55216 0.706015) scale(23.9225)">
<stop stop-color="white" stop-opacity="0.1"/>
<stop offset="1" stop-color="white" stop-opacity="0"/>
</radialGradient>
</defs>
</svg>
