<svg width="21" height="21" viewBox="0 0 21 21" fill="none" xmlns="http://www.w3.org/2000/svg">
<g clip-path="url(#clip0)">
<mask id="mask0" mask-type="alpha" maskUnits="userSpaceOnUse" x="2" y="0" width="16" height="21">
<path d="M12.2765 0H4.27558C3.49902 0 2.86365 0.635369 2.86365 1.41193V19.2964C2.86365 20.073 3.49902 20.7083 4.27558 20.7083H16.5123C17.2889 20.7083 17.9243 20.073 17.9243 19.2964V5.64773L12.2765 0Z" fill="white"/>
</mask>
<g mask="url(#mask0)">
<path d="M12.2765 0H4.27558C3.49902 0 2.86365 0.635369 2.86365 1.41193V19.2964C2.86365 20.073 3.49902 20.7083 4.27558 20.7083H16.5123C17.2889 20.7083 17.9243 20.073 17.9243 19.2964V5.64773L14.6297 3.29451L12.2765 0Z" fill="#F4B400"/>
</g>
<mask id="mask1" mask-type="alpha" maskUnits="userSpaceOnUse" x="2" y="0" width="16" height="21">
<path d="M12.2765 0H4.27558C3.49902 0 2.86365 0.635369 2.86365 1.41193V19.2964C2.86365 20.073 3.49902 20.7083 4.27558 20.7083H16.5123C17.2889 20.7083 17.9243 20.073 17.9243 19.2964V5.64773L12.2765 0Z" fill="white"/>
</mask>
<g mask="url(#mask1)">
<path d="M13.4531 9.41284H7.33475C6.94647 9.41284 6.62878 9.73053 6.62878 10.1188V16.2372C6.62878 16.6255 6.94647 16.9431 7.33475 16.9431H13.4531C13.8414 16.9431 14.1591 16.6255 14.1591 16.2372V10.1188C14.1591 9.73053 13.8414 9.41284 13.4531 9.41284ZM13.2178 14.8252H7.57007V11.5307H13.2178V14.8252Z" fill="#F1F1F1"/>
</g>
<mask id="mask2" mask-type="alpha" maskUnits="userSpaceOnUse" x="2" y="0" width="16" height="21">
<path d="M12.2765 0H4.27558C3.49902 0 2.86365 0.635369 2.86365 1.41193V19.2964C2.86365 20.073 3.49902 20.7083 4.27558 20.7083H16.5123C17.2889 20.7083 17.9243 20.073 17.9243 19.2964V5.64773L12.2765 0Z" fill="white"/>
</mask>
<g mask="url(#mask2)">
<path d="M12.6896 5.23462L17.9243 10.4682V5.64761L12.6896 5.23462Z" fill="url(#paint0_linear)"/>
</g>
<mask id="mask3" mask-type="alpha" maskUnits="userSpaceOnUse" x="2" y="0" width="16" height="21">
<path d="M12.2765 0H4.27558C3.49902 0 2.86365 0.635369 2.86365 1.41193V19.2964C2.86365 20.073 3.49902 20.7083 4.27558 20.7083H16.5123C17.2889 20.7083 17.9243 20.073 17.9243 19.2964V5.64773L12.2765 0Z" fill="white"/>
</mask>
<g mask="url(#mask3)">
<path d="M12.2765 0V4.2358C12.2765 5.01589 12.9083 5.64773 13.6884 5.64773H17.9242L12.2765 0Z" fill="#FADA80"/>
</g>
<mask id="mask4" mask-type="alpha" maskUnits="userSpaceOnUse" x="2" y="0" width="16" height="21">
<path d="M12.2765 0H4.27558C3.49902 0 2.86365 0.635369 2.86365 1.41193V19.2964C2.86365 20.073 3.49902 20.7083 4.27558 20.7083H16.5123C17.2889 20.7083 17.9243 20.073 17.9243 19.2964V5.64773L12.2765 0Z" fill="white"/>
</mask>
<g mask="url(#mask4)">
<path d="M12.2765 0V0.117661L17.8066 5.64773H17.9242L12.2765 0Z" fill="white" fill-opacity="0.1"/>
</g>
<mask id="mask5" mask-type="alpha" maskUnits="userSpaceOnUse" x="2" y="0" width="16" height="21">
<path d="M12.2765 0H4.27558C3.49902 0 2.86365 0.635369 2.86365 1.41193V19.2964C2.86365 20.073 3.49902 20.7083 4.27558 20.7083H16.5123C17.2889 20.7083 17.9243 20.073 17.9243 19.2964V5.64773L12.2765 0Z" fill="white"/>
</mask>
<g mask="url(#mask5)">
<path d="M4.27558 0C3.49902 0 2.86365 0.635369 2.86365 1.41193V1.52959C2.86365 0.75303 3.49902 0.117661 4.27558 0.117661H12.2765V0H4.27558Z" fill="white" fill-opacity="0.2"/>
</g>
<mask id="mask6" mask-type="alpha" maskUnits="userSpaceOnUse" x="2" y="0" width="16" height="21">
<path d="M12.2765 0H4.27558C3.49902 0 2.86365 0.635369 2.86365 1.41193V19.2964C2.86365 20.073 3.49902 20.7083 4.27558 20.7083H16.5123C17.2889 20.7083 17.9243 20.073 17.9243 19.2964V5.64773L12.2765 0Z" fill="white"/>
</mask>
<g mask="url(#mask6)">
<path d="M16.5123 20.5906H4.27558C3.49902 20.5906 2.86365 19.9553 2.86365 19.1787V19.2964C2.86365 20.0729 3.49902 20.7083 4.27558 20.7083H16.5123C17.2889 20.7083 17.9243 20.0729 17.9243 19.2964V19.1787C17.9243 19.9553 17.2889 20.5906 16.5123 20.5906Z" fill="#BF360C" fill-opacity="0.2"/>
</g>
<mask id="mask7" mask-type="alpha" maskUnits="userSpaceOnUse" x="2" y="0" width="16" height="21">
<path d="M12.2765 0H4.27558C3.49902 0 2.86365 0.635369 2.86365 1.41193V19.2964C2.86365 20.073 3.49902 20.7083 4.27558 20.7083H16.5123C17.2889 20.7083 17.9243 20.073 17.9243 19.2964V5.64773L12.2765 0Z" fill="white"/>
</mask>
<g mask="url(#mask7)">
<path d="M13.6884 5.64777C12.9083 5.64777 12.2765 5.01593 12.2765 4.23584V4.3535C12.2765 5.13359 12.9083 5.76543 13.6884 5.76543H17.9242V5.64777H13.6884Z" fill="#BF360C" fill-opacity="0.1"/>
</g>
<path d="M12.2765 0H4.27558C3.49902 0 2.86365 0.635369 2.86365 1.41193V19.2964C2.86365 20.073 3.49902 20.7083 4.27558 20.7083H16.5123C17.2889 20.7083 17.9243 20.073 17.9243 19.2964V5.64773L12.2765 0Z" fill="url(#paint1_radial)"/>
</g>
<defs>
<linearGradient id="paint0_linear" x1="15.3072" y1="5.68398" x2="15.3072" y2="10.4689" gradientUnits="userSpaceOnUse">
<stop stop-color="#BF360C" stop-opacity="0.2"/>
<stop offset="1" stop-color="#BF360C" stop-opacity="0.02"/>
</linearGradient>
<radialGradient id="paint1_radial" cx="0" cy="0" r="1" gradientUnits="userSpaceOnUse" gradientTransform="translate(3.34078 0.411621) scale(24.285)">
<stop stop-color="white" stop-opacity="0.1"/>
<stop offset="1" stop-color="white" stop-opacity="0"/>
</radialGradient>
<clipPath id="clip0">
<rect width="15.2727" height="21" fill="white" transform="translate(2.86365)"/>
</clipPath>
</defs>
</svg>
