<svg width="144" height="28" viewBox="0 0 144 28" fill="none" xmlns="http://www.w3.org/2000/svg">
<path d="M35.608 11.132C37.456 11.132 38.545 10.175 38.545 8.734C38.545 7.337 37.467 6.853 35.839 6.49C34.673 6.226 34.222 6.05 34.222 5.5C34.222 5.049 34.64 4.686 35.333 4.686C36.059 4.686 36.818 4.983 37.489 5.522L38.336 4.356C37.566 3.696 36.609 3.311 35.377 3.311C33.727 3.311 32.583 4.268 32.583 5.665C32.583 7.128 33.716 7.579 35.311 7.942C36.466 8.206 36.906 8.371 36.906 8.91C36.906 9.383 36.488 9.757 35.674 9.757C34.717 9.757 33.903 9.383 33.188 8.767L32.253 9.878C33.133 10.692 34.299 11.132 35.608 11.132ZM39.7309 11H41.3589V3.443H39.7309V11ZM49.2581 11L47.3991 8.36C48.4331 7.997 49.1151 7.117 49.1151 5.995C49.1151 4.499 47.9051 3.443 46.2661 3.443H42.8671V11H44.4841V8.547H45.6831L47.4101 11H49.2581ZM44.4841 4.928H46.0901C46.8931 4.928 47.4431 5.346 47.4431 5.995C47.4431 6.644 46.8931 7.062 46.0901 7.062H44.4841V4.928ZM54.0402 11.132C55.1842 11.132 56.2402 10.637 56.9772 9.867L55.8002 8.811C55.3602 9.317 54.7332 9.658 54.0402 9.658C52.7752 9.658 51.6972 8.536 51.6972 7.216C51.6972 5.907 52.7752 4.785 54.0402 4.785C54.7332 4.785 55.3602 5.126 55.8002 5.632L56.9772 4.576C56.2402 3.795 55.1842 3.311 54.0402 3.311C51.8732 3.311 50.0252 5.093 50.0252 7.216C50.0252 9.339 51.8732 11.132 54.0402 11.132ZM59.5544 9.537V3.443H57.9264V11H63.3164V9.537H59.5544ZM68.0803 11.132C70.2693 11.132 72.0953 9.339 72.0953 7.216C72.0953 5.093 70.2693 3.311 68.0803 3.311C65.9133 3.311 64.0653 5.093 64.0653 7.216C64.0653 9.339 65.9133 11.132 68.0803 11.132ZM68.0803 9.658C66.8153 9.658 65.7373 8.536 65.7373 7.216C65.7373 5.907 66.8153 4.785 68.0803 4.785C69.3563 4.785 70.4343 5.907 70.4343 7.216C70.4343 8.536 69.3563 9.658 68.0803 9.658ZM33.222 24H36.238C39.072 24 41.074 22.141 41.074 19.528C41.074 16.915 39.072 15.069 36.238 15.069H33.222V24ZM34.236 23.077V15.992H36.238C38.474 15.992 40.047 17.461 40.047 19.528C40.047 21.608 38.474 23.077 36.238 23.077H34.236ZM46.0103 24.156C47.8953 24.156 49.4813 22.544 49.4813 20.633C49.4813 18.722 47.8953 17.123 46.0103 17.123C44.1253 17.123 42.5263 18.722 42.5263 20.633C42.5263 22.544 44.1253 24.156 46.0103 24.156ZM46.0103 23.285C44.6713 23.285 43.5533 22.076 43.5533 20.633C43.5533 19.203 44.6713 17.994 46.0103 17.994C47.3363 17.994 48.4543 19.203 48.4543 20.633C48.4543 22.076 47.3363 23.285 46.0103 23.285ZM54.2115 24.156C55.1475 24.156 56.0055 23.766 56.6425 23.129L55.9665 22.466C55.5115 22.973 54.8875 23.285 54.2115 23.285C52.8725 23.285 51.7545 22.076 51.7545 20.633C51.7545 19.203 52.8725 17.994 54.2115 17.994C54.8745 17.994 55.4855 18.293 55.9275 18.774L56.6035 18.111C55.9665 17.5 55.1215 17.123 54.2115 17.123C52.3265 17.123 50.7275 18.722 50.7275 20.633C50.7275 22.544 52.3265 24.156 54.2115 24.156ZM62.8694 17.279V21.556C62.8694 22.492 61.9204 23.285 60.7894 23.285C59.8014 23.285 59.1124 22.518 59.1124 21.426V17.279H58.1374V21.556C58.1374 23.077 59.1774 24.156 60.6594 24.156C61.6084 24.156 62.4794 23.636 62.8694 22.921V24H63.8444V17.279H62.8694ZM73.0978 17.123C72.0838 17.123 71.1998 17.682 70.9268 18.553C70.5628 17.682 69.7698 17.123 68.7558 17.123C67.8718 17.123 67.1438 17.565 66.8058 18.267V17.279H65.8308V24H66.8058V19.723C66.8058 18.709 67.5598 17.994 68.6258 17.994C69.5358 17.994 70.1728 18.761 70.1728 19.853V24H71.1478V19.723C71.1478 18.709 71.9018 17.994 72.9678 17.994C73.8778 17.994 74.5148 18.761 74.5148 19.853V24H75.4898V19.723C75.4898 18.202 74.5018 17.123 73.0978 17.123ZM80.4887 23.285C79.1627 23.285 78.2397 22.323 78.0967 21.01H83.5957C83.5957 18.657 82.4387 17.123 80.4107 17.123C78.6037 17.123 77.0957 18.618 77.0957 20.62C77.0957 22.687 78.7077 24.156 80.5017 24.156C81.4377 24.156 82.6207 23.753 83.2057 23.116L82.6077 22.479C82.1917 22.934 81.2817 23.285 80.4887 23.285ZM80.4497 17.994C81.7887 17.994 82.5037 18.93 82.6337 20.139H78.1097C78.2917 18.839 79.2537 17.994 80.4497 17.994ZM88.3891 17.123C87.4401 17.123 86.5691 17.643 86.1791 18.358V17.279H85.2041V24H86.1791V19.723C86.1791 18.787 87.1281 17.994 88.2591 17.994C89.2471 17.994 89.9361 18.761 89.9361 19.853V24H90.9111V19.723C90.9111 18.202 89.8711 17.123 88.3891 17.123ZM95.8355 23.012C95.6925 23.168 95.4325 23.285 95.1335 23.285C94.7435 23.285 94.4055 22.934 94.4055 22.44V18.15H96.0565V17.279H94.4055V15.433H93.4305V17.279H92.3775V18.15H93.4305V22.44C93.4305 23.441 94.1065 24.156 95.0685 24.156C95.5235 24.156 95.9655 24 96.3165 23.727L95.8355 23.012ZM104.6 24.143C106.68 24.143 107.746 22.986 107.746 21.569C107.746 19.996 106.524 19.385 104.821 18.982C103.3 18.618 102.416 18.293 102.416 17.37C102.416 16.551 103.222 15.823 104.327 15.823C105.263 15.823 106.147 16.252 106.888 16.967L107.512 16.174C106.693 15.42 105.705 14.9 104.379 14.9C102.663 14.9 101.389 16.018 101.389 17.448C101.389 18.995 102.52 19.554 104.314 19.97C105.874 20.334 106.719 20.711 106.719 21.66C106.719 22.466 106.017 23.22 104.639 23.22C103.391 23.22 102.468 22.687 101.714 21.933L101.077 22.726C101.974 23.61 103.131 24.143 104.6 24.143ZM112.468 23.285C111.142 23.285 110.219 22.323 110.076 21.01H115.575C115.575 18.657 114.418 17.123 112.39 17.123C110.583 17.123 109.075 18.618 109.075 20.62C109.075 22.687 110.687 24.156 112.481 24.156C113.417 24.156 114.6 23.753 115.185 23.116L114.587 22.479C114.171 22.934 113.261 23.285 112.468 23.285ZM112.429 17.994C113.768 17.994 114.483 18.93 114.613 20.139H110.089C110.271 18.839 111.233 17.994 112.429 17.994ZM119.901 17.123C119.251 17.123 118.445 17.292 117.483 17.773L117.873 18.566C118.484 18.254 119.16 17.955 119.836 17.955C121.292 17.955 121.656 18.995 121.656 19.905V20.152C120.967 19.931 120.2 19.775 119.472 19.775C118.029 19.775 116.833 20.672 116.833 22.011C116.833 23.337 117.873 24.156 119.29 24.156C120.174 24.156 121.175 23.74 121.656 22.947V24H122.631V19.905C122.631 18.28 121.734 17.123 119.901 17.123ZM119.459 23.298C118.51 23.298 117.782 22.804 117.782 21.972C117.782 21.166 118.627 20.594 119.628 20.594C120.356 20.594 121.045 20.698 121.656 20.867V21.894C121.396 22.843 120.343 23.298 119.459 23.298ZM125.689 18.592V17.279H124.714V24H125.689V20.243C125.689 18.93 126.768 17.994 128.289 17.994V17.123C127.054 17.123 126.092 17.695 125.689 18.592ZM132.757 24.156C133.693 24.156 134.551 23.766 135.188 23.129L134.512 22.466C134.057 22.973 133.433 23.285 132.757 23.285C131.418 23.285 130.3 22.076 130.3 20.633C130.3 19.203 131.418 17.994 132.757 17.994C133.42 17.994 134.031 18.293 134.473 18.774L135.149 18.111C134.512 17.5 133.667 17.123 132.757 17.123C130.872 17.123 129.273 18.722 129.273 20.633C129.273 22.544 130.872 24.156 132.757 24.156ZM139.881 17.123C138.932 17.123 138.061 17.643 137.671 18.358V14.913H136.696V24H137.671V19.723C137.671 18.787 138.62 17.994 139.751 17.994C140.739 17.994 141.428 18.761 141.428 19.853V24H142.403V19.723C142.403 18.202 141.363 17.123 139.881 17.123Z" fill="white"/>
<path d="M14 0C11.2311 0 8.52431 0.821085 6.22202 2.35942C3.91973 3.89776 2.12532 6.08426 1.06569 8.64243C0.00606596 11.2006 -0.271181 14.0155 0.269012 16.7313C0.809205 19.447 2.14258 21.9416 4.10051 23.8995C6.05844 25.8574 8.55301 27.1908 11.2687 27.731C13.9845 28.2712 16.7994 27.9939 19.3576 26.9343C21.9157 25.8747 24.1022 24.0803 25.6406 21.778C27.1789 19.4757 28 16.7689 28 14C28 10.287 26.525 6.72601 23.8995 4.1005C21.274 1.475 17.713 0 14 0V0ZM14 25.2671C11.7865 25.2671 9.62266 24.6107 7.78218 23.381C5.94171 22.1512 4.50723 20.4033 3.66015 18.3582C2.81307 16.3132 2.59143 14.0629 3.02327 11.8919C3.45511 9.72094 4.52102 7.72676 6.08622 6.16156C7.65142 4.59636 9.6456 3.53045 11.8166 3.09861C13.9876 2.66677 16.2379 2.88841 18.2829 3.73548C20.3279 4.58256 22.0759 6.01704 23.3056 7.85752C24.5354 9.698 25.1918 11.8618 25.1918 14.0753C25.1918 15.5451 24.9023 17.0004 24.3399 18.3582C23.7774 19.7161 22.953 20.9499 21.9138 21.9891C20.8745 23.0284 19.6408 23.8528 18.2829 24.4152C16.9251 24.9776 15.4697 25.2671 14 25.2671Z" fill="white"/>
<path d="M14.0071 3.86206C12.0014 3.86066 10.0404 4.45422 8.3721 5.56765C6.70383 6.68108 5.40333 8.26433 4.63513 10.1171C3.86693 11.9698 3.66557 14.0088 4.05652 15.9761C4.44746 17.9433 5.41315 19.7503 6.8314 21.1686C8.24964 22.5868 10.0567 23.5525 12.0239 23.9435C13.9912 24.3344 16.0301 24.133 17.8829 23.3649C19.7356 22.5967 21.3189 21.2961 22.4323 19.6279C23.5458 17.9596 24.1393 15.9986 24.1379 13.9929C24.1342 11.3072 23.0656 8.73255 21.1665 6.83347C19.2674 4.93439 16.6928 3.86583 14.0071 3.86206V3.86206ZM11.9866 18.2188C10.8451 18.2188 9.75031 17.7653 8.94312 16.9581C8.13594 16.1509 7.68246 15.0562 7.68246 13.9146C7.68246 12.7731 8.13594 11.6783 8.94312 10.8711C9.75031 10.0639 10.8451 9.61045 11.9866 9.61045C12.181 9.61045 12.3674 9.68765 12.5048 9.82507C12.6422 9.96249 12.7194 10.1489 12.7194 10.3432C12.7194 10.5376 12.6422 10.724 12.5048 10.8614C12.3674 10.9988 12.181 11.076 11.9866 11.076C11.4238 11.076 10.8736 11.2429 10.4056 11.5556C9.93765 11.8683 9.5729 12.3127 9.35752 12.8327C9.14213 13.3527 9.08578 13.9249 9.19558 14.4769C9.30538 15.0289 9.57641 15.536 9.9744 15.934C10.3724 16.332 10.8794 16.603 11.4315 16.7128C11.9835 16.8226 12.5557 16.7662 13.0756 16.5508C13.5956 16.3355 14.0401 15.9707 14.3528 15.5027C14.6655 15.0348 14.8324 14.4846 14.8324 13.9217C14.8324 13.7274 14.9096 13.541 15.047 13.4036C15.1844 13.2662 15.3708 13.189 15.5651 13.189C15.7595 13.189 15.9459 13.2662 16.0833 13.4036C16.2207 13.541 16.2979 13.7274 16.2979 13.9217C16.3017 14.4883 16.1927 15.0499 15.9772 15.5739C15.7617 16.0979 15.4441 16.5738 15.0428 16.9737C14.6415 17.3737 14.1646 17.6898 13.6399 17.9035C13.1152 18.1173 12.5532 18.2245 11.9866 18.2188V18.2188ZM16.0276 18.2188C15.8332 18.2188 15.6468 18.1416 15.5094 18.0042C15.372 17.8667 15.2948 17.6804 15.2948 17.486C15.2948 17.2917 15.372 17.1053 15.5094 16.9679C15.6468 16.8304 15.8332 16.7532 16.0276 16.7532C16.5904 16.7532 17.1406 16.5863 17.6086 16.2736C18.0766 15.961 18.4413 15.5165 18.6567 14.9965C18.8721 14.4765 18.9284 13.9043 18.8186 13.3523C18.7088 12.8003 18.4378 12.2932 18.0398 11.8953C17.6418 11.4973 17.1348 11.2263 16.5828 11.1165C16.0307 11.0066 15.4586 11.063 14.9386 11.2784C14.4186 11.4938 13.9741 11.8585 13.6614 12.3265C13.3487 12.7945 13.1818 13.3447 13.1818 13.9075C13.1818 14.1018 13.1046 14.2882 12.9672 14.4257C12.8298 14.5631 12.6434 14.6403 12.4491 14.6403C12.2547 14.6403 12.0683 14.5631 11.9309 14.4257C11.7935 14.2882 11.7163 14.1018 11.7163 13.9075C11.7092 13.0547 11.9557 12.2191 12.4243 11.5066C12.893 10.7941 13.5627 10.2369 14.3485 9.9057C15.1344 9.57446 16.0009 9.48413 16.8381 9.64617C17.6754 9.80821 18.4457 10.2153 19.0512 10.8158C19.6567 11.4163 20.0702 12.1832 20.2391 13.0191C20.4081 13.8549 20.325 14.7222 20.0003 15.5107C19.6756 16.2993 19.124 16.9736 18.4154 17.4482C17.7068 17.9227 16.8733 18.1761 16.0205 18.1761L16.0276 18.2188Z" fill="white"/>
</svg>
