<svg width="21" height="21" viewBox="0 0 21 21" fill="none" xmlns="http://www.w3.org/2000/svg">
<path fill-rule="evenodd" clip-rule="evenodd" d="M17.044 7.425L17.029 18.128C17.0284 18.2603 16.9755 18.3869 16.8818 18.4803C16.7881 18.5736 16.6612 18.626 16.529 18.626L4.95298 18.612C4.82566 18.6115 4.70373 18.5606 4.61379 18.4705C4.52386 18.3804 4.47324 18.2583 4.47298 18.131V2.881C4.47298 2.607 4.69298 2.386 4.96598 2.385C6.85098 2.38 13.503 2.374 13.503 2.374C13.663 2.374 13.813 2.454 13.902 2.586L16.962 7.157C17.015 7.237 17.044 7.33 17.044 7.425ZM13.756 0C14.549 0 15.29 0.395 15.731 1.054L19.015 5.958C19.277 6.349 19.415 6.809 19.415 7.279V18.612C19.415 19.245 19.1637 19.8521 18.7163 20.2999C18.2688 20.7476 17.662 20.9995 17.029 21H4.48798C3.85472 20.9997 3.24748 20.7481 2.7997 20.3003C2.35192 19.8525 2.10024 19.2453 2.09998 18.612V2.388C2.09998 1.068 3.16998 0 4.48798 0H13.756ZM14.377 14.405H7.14798C6.99498 14.405 6.87198 14.608 6.87198 14.859V15.797C6.87198 16.047 6.99498 16.25 7.14798 16.25H14.378C14.53 16.25 14.654 16.047 14.654 15.797V14.859C14.654 14.609 14.53 14.405 14.377 14.405ZM14.386 11.228H7.15598C7.00398 11.228 6.87998 11.431 6.87998 11.681V12.619C6.87998 12.87 7.00398 13.073 7.15698 13.073H14.386C14.539 13.073 14.662 12.87 14.662 12.619V11.681C14.662 11.431 14.539 11.228 14.386 11.228Z" fill="#444444"/>
</svg>
