<svg width="15" height="15" viewBox="0 0 15 15" fill="none" xmlns="http://www.w3.org/2000/svg">
<path fill-rule="evenodd" clip-rule="evenodd" d="M14.9969 13.7928C14.7619 10.7193 11.4683 8.31142 7.49976 8.31142C3.53117 8.31142 0.238299 10.7193 0.00258413 13.7936C-0.00805136 13.9474 0.0142226 14.1018 0.0679225 14.2464C0.121622 14.391 0.205515 14.5225 0.314014 14.6321C0.430094 14.7492 0.568313 14.8421 0.72062 14.9052C0.872928 14.9684 1.03628 15.0006 1.20116 15H13.7991C13.9639 15.0006 14.1273 14.9684 14.2796 14.9052C14.4319 14.8421 14.5701 14.7492 14.6862 14.6321C14.9076 14.4043 15.0205 14.0986 14.9969 13.7928ZM11.5641 3.74285C11.5641 1.67857 9.80476 0 7.64261 0C5.48046 0 3.72117 1.67857 3.72117 3.74285C3.72117 5.805 5.48046 7.48571 7.64261 7.48571C9.80476 7.48571 11.5641 5.80571 11.5641 3.74285ZM13.0826 13.2414C12.5012 11.3736 10.1533 10.0186 7.49976 10.0186C4.84546 10.0186 2.49688 11.3736 1.91617 13.2414L1.94259 13.2929H13.0562L13.3684 13.16L13.0826 13.2414ZM9.77548 3.74288C9.77548 2.62002 8.81834 1.70717 7.64262 1.70717C6.4669 1.70717 5.50975 2.62002 5.50975 3.74216C5.50975 4.86431 6.46618 5.77788 7.64262 5.77788C8.81834 5.77788 9.77548 4.86431 9.77548 3.74288Z" fill="#444444"/>
</svg>
