<svg width="123" height="123" viewBox="0 0 123 123" fill="none" xmlns="http://www.w3.org/2000/svg">
<g opacity="0.5">
<path d="M85.6909 72.988C100.751 52.1388 95.7142 23.2689 74.448 8.5076C53.1818 -6.25366 23.7343 -1.31913 8.67777 19.5336C-6.37875 40.3827 -1.34552 69.2492 19.9243 84.0105C35.1031 94.5461 55.1713 95.3574 71.1812 86.088L105.968 119.988C109.724 123.864 115.973 124.019 119.927 120.337C123.881 116.658 124.039 110.531 120.287 106.655C120.168 106.532 120.053 106.419 119.927 106.302L85.6909 72.988ZM47.1556 76.1484C30.3505 76.1519 16.7259 62.805 16.7151 46.3296C16.7115 29.8541 30.3254 16.4967 47.134 16.4896C63.9174 16.4826 77.5348 29.8082 77.5672 46.2626C77.596 62.7415 63.9894 76.1201 47.1771 76.1484C47.17 76.1484 47.1664 76.1484 47.1556 76.1484Z" fill="#444444"/>
</g>
</svg>
