<svg width="15" height="15" viewBox="0 0 15 15" fill="none" xmlns="http://www.w3.org/2000/svg">
<path d="M15 7.5V12.3214C15 13.0318 14.7178 13.7131 14.2155 14.2155C13.7131 14.7178 13.0318 15 12.3214 15H2.67857C1.96817 15 1.28686 14.7178 0.784535 14.2155C0.282206 13.7131 0 13.0318 0 12.3214V2.67858C0 1.96818 0.282206 1.28687 0.784535 0.784544C1.28686 0.282215 1.96817 8.95408e-06 2.67857 8.95408e-06H7.5C7.64208 8.95408e-06 7.77834 0.0564501 7.8788 0.156916C7.97927 0.257382 8.03571 0.393643 8.03571 0.535723C8.03571 0.677803 7.97927 0.814064 7.8788 0.91453C7.77834 1.015 7.64208 1.07144 7.5 1.07144H2.67857C2.25233 1.07144 1.84355 1.24076 1.54215 1.54216C1.24075 1.84356 1.07143 2.25234 1.07143 2.67858V12.3214C1.07143 12.7477 1.24075 13.1565 1.54215 13.4579C1.84355 13.7592 2.25233 13.9286 2.67857 13.9286H12.3214C12.7477 13.9286 13.1564 13.7592 13.4578 13.4579C13.7592 13.1565 13.9286 12.7477 13.9286 12.3214V7.5C13.9286 7.35792 13.985 7.22166 14.0855 7.1212C14.1859 7.02073 14.3222 6.96429 14.4643 6.96429C14.6064 6.96429 14.7426 7.02073 14.8431 7.1212C14.9436 7.22166 15 7.35792 15 7.5ZM10.7143 1.07144H13.1732L7.11964 7.11965C7.06943 7.16945 7.02957 7.2287 7.00238 7.29398C6.97518 7.35926 6.96118 7.42928 6.96118 7.5C6.96118 7.57073 6.97518 7.64075 7.00238 7.70603C7.02957 7.77131 7.06943 7.83056 7.11964 7.88036C7.16944 7.93057 7.22869 7.97043 7.29397 7.99763C7.35925 8.02482 7.42928 8.03883 7.5 8.03883C7.57072 8.03883 7.64074 8.02482 7.70602 7.99763C7.7713 7.97043 7.83055 7.93057 7.88035 7.88036L13.9286 1.83215V4.28572C13.9286 4.4278 13.985 4.56406 14.0855 4.66453C14.1859 4.76499 14.3222 4.82143 14.4643 4.82143C14.6064 4.82143 14.7426 4.76499 14.8431 4.66453C14.9436 4.56406 15 4.4278 15 4.28572V0.535723C15.0004 0.465219 14.9869 0.395329 14.9602 0.330059C14.9336 0.264789 14.8943 0.205423 14.8446 0.155366C14.7946 0.105715 14.7352 0.0664339 14.6699 0.0397743C14.6047 0.0131147 14.5348 -0.000398667 14.4643 8.95408e-06H10.7143C10.5722 8.95408e-06 10.4359 0.0564501 10.3355 0.156916C10.235 0.257382 10.1786 0.393643 10.1786 0.535723C10.1786 0.677803 10.235 0.814064 10.3355 0.91453C10.4359 1.015 10.5722 1.07144 10.7143 1.07144Z" fill="#444444"/>
</svg>
