<svg width="316" height="82" viewBox="0 0 316 82" fill="none" xmlns="http://www.w3.org/2000/svg">
<g clip-path="url(#clip0)">
<path d="M100.722 58.3103L102.991 54.3989C103.095 54.2194 103.235 54.064 103.403 53.9427C103.571 53.8215 103.763 53.7372 103.966 53.6955C104.169 53.6538 104.378 53.6556 104.581 53.7008C104.783 53.746 104.973 53.8335 105.139 53.9576C105.46 54.1582 110.56 57.9693 114.655 57.9693C115.366 58.0438 116.084 57.973 116.765 57.7613C117.447 57.5495 118.079 57.2013 118.622 56.7377C119.165 56.2742 119.607 55.705 119.923 55.065C120.239 54.4249 120.42 53.7274 120.457 53.0148C120.457 49.8054 117.747 47.599 112.427 45.4527C106.504 43.0657 100.582 39.2746 100.582 31.8328C100.582 26.2365 104.738 19.7976 114.776 19.7976C119.303 19.9092 123.688 21.3999 127.344 24.0701C127.637 24.3034 127.837 24.6342 127.907 25.0023C127.977 25.3704 127.912 25.7514 127.725 26.076L125.316 29.6665C125.125 30.0561 124.788 30.3548 124.379 30.4975C123.969 30.6402 123.519 30.6155 123.128 30.4287C122.606 30.1078 117.827 26.9586 114.354 26.9586C113.032 26.8117 111.705 27.1932 110.663 28.0199C109.622 28.8466 108.949 30.0514 108.793 31.3715C108.793 34.3402 111.142 36.3661 116.241 38.4321C122.365 40.8994 129.431 44.55 129.431 52.6738C129.431 59.1728 123.81 65.1503 114.916 65.1503C109.831 65.2915 104.879 63.5156 101.044 60.1758C100.482 59.6342 100.16 59.3133 100.722 58.3103Z" fill="white"/>
<path d="M137.502 21.5633C137.512 21.2527 137.64 20.9574 137.86 20.7376C138.08 20.5178 138.376 20.3899 138.687 20.3799H144.549C144.86 20.3899 145.155 20.5178 145.375 20.7376C145.595 20.9574 145.723 21.2527 145.733 21.5633V63.2855C145.728 63.5997 145.603 63.8999 145.382 64.124C145.162 64.348 144.863 64.4787 144.549 64.489H138.687C138.372 64.4787 138.074 64.348 137.853 64.124C137.633 63.8999 137.507 63.5997 137.502 63.2855V21.5633Z" fill="white"/>
<path d="M157.237 21.5629C157.237 21.4058 157.268 21.2502 157.329 21.1053C157.39 20.9604 157.479 20.8291 157.591 20.7189C157.703 20.6087 157.836 20.522 157.982 20.4637C158.128 20.4054 158.284 20.3768 158.442 20.3794H176.51C178.304 20.3636 180.083 20.7015 181.745 21.3738C183.408 22.0462 184.921 23.0397 186.199 24.2975C187.476 25.5553 188.493 27.0527 189.19 28.7037C189.888 30.3548 190.252 32.1271 190.262 33.9191C190.183 36.7376 189.248 39.4654 187.58 41.7403C185.913 44.0153 183.592 45.7298 180.927 46.6564L189.58 62.7033C189.7 62.8884 189.767 63.1035 189.771 63.3243C189.776 63.5451 189.718 63.7628 189.606 63.9527C189.493 64.1426 189.329 64.2972 189.133 64.399C188.937 64.5008 188.716 64.5457 188.496 64.5287H181.851C181.645 64.5378 181.44 64.4902 181.26 64.3911C181.079 64.2921 180.929 64.1454 180.827 63.967L172.435 47.2581H165.448V63.3051C165.438 63.6211 165.308 63.9214 165.084 64.145C164.861 64.3686 164.56 64.4986 164.244 64.5086H158.442C158.122 64.5086 157.816 64.3818 157.59 64.1561C157.364 63.9304 157.237 63.6243 157.237 63.3051V21.5629ZM175.788 40.4783C177.451 40.4265 179.03 39.7336 180.194 38.5445C181.358 37.3555 182.016 35.7627 182.031 34.0996C181.964 32.487 181.278 30.9621 180.115 29.8416C178.953 28.7211 177.403 28.0909 175.788 28.082H165.508V40.6187L175.788 40.4783Z" fill="white"/>
<path d="M218.831 19.7374C224.492 19.5959 229.979 21.7021 234.089 25.5946C234.213 25.7056 234.313 25.8416 234.381 25.9937C234.449 26.1458 234.484 26.3105 234.484 26.4771C234.484 26.6438 234.449 26.8085 234.381 26.9606C234.313 27.1127 234.213 27.2487 234.089 27.3597L230.234 31.3715C230.14 31.4886 230.021 31.5831 229.886 31.6481C229.75 31.7131 229.602 31.7468 229.451 31.7468C229.301 31.7468 229.153 31.7131 229.017 31.6481C228.882 31.5831 228.763 31.4886 228.668 31.3715C225.978 29.0127 222.531 27.6961 218.952 27.6606C217.061 27.6944 215.196 28.1019 213.465 28.8597C211.733 29.6175 210.169 30.7105 208.862 32.0757C207.555 33.4409 206.532 35.0511 205.852 36.8135C205.172 38.5758 204.848 40.4554 204.898 42.3436C204.861 44.2225 205.195 46.0903 205.882 47.8399C206.568 49.5895 207.594 51.1865 208.9 52.5394C210.205 53.8922 211.765 54.9744 213.49 55.7237C215.215 56.4731 217.071 56.8749 218.952 56.9062C222.492 56.8761 225.909 55.6054 228.608 53.3157C228.82 53.1169 229.1 53.0062 229.391 53.0062C229.682 53.0062 229.962 53.1169 230.174 53.3157L234.189 57.3274C234.302 57.4393 234.391 57.5721 234.452 57.7184C234.512 57.8647 234.544 58.0215 234.544 58.1799C234.544 58.3383 234.512 58.4952 234.452 58.6415C234.391 58.7878 234.302 58.9206 234.189 59.0324C230.076 62.9757 224.571 65.1382 218.871 65.05C215.889 65.05 212.937 64.4633 210.182 63.3232C207.427 62.1831 204.924 60.512 202.816 58.4054C200.707 56.2987 199.035 53.7978 197.893 51.0454C196.752 48.2929 196.165 45.3429 196.165 42.3636C196.165 39.3844 196.752 36.4344 197.893 33.6819C199.035 30.9295 200.707 28.4286 202.816 26.3219C204.924 24.2153 207.427 22.5442 210.182 21.4041C212.937 20.264 215.889 19.6772 218.871 19.6772L218.831 19.7374Z" fill="white"/>
<path d="M242.401 21.5633C242.401 21.2495 242.525 20.9485 242.748 20.7265C242.97 20.5046 243.271 20.3799 243.585 20.3799H249.387C249.702 20.3849 250.002 20.5105 250.226 20.7309C250.451 20.9512 250.581 21.2493 250.592 21.5633V56.9268H266.653C266.811 56.9268 266.968 56.958 267.114 57.0185C267.26 57.0789 267.393 57.1676 267.504 57.2794C267.616 57.3911 267.705 57.5238 267.766 57.6698C267.826 57.8158 267.857 57.9723 267.857 58.1304V63.2855C267.857 63.6047 267.73 63.9108 267.504 64.1365C267.279 64.3622 266.972 64.489 266.653 64.489H243.565C243.408 64.489 243.252 64.4577 243.107 64.397C242.962 64.3363 242.831 64.2473 242.72 64.1353C242.61 64.0233 242.523 63.8904 242.465 63.7445C242.407 63.5986 242.378 63.4426 242.381 63.2855L242.401 21.5633Z" fill="white"/>
<path d="M293.294 19.7384C297.785 19.7265 302.178 21.0454 305.919 23.5283C309.659 26.0112 312.579 29.5466 314.309 33.6874C316.038 37.8283 316.5 42.3885 315.635 46.7916C314.771 51.1946 312.619 55.2426 309.452 58.4238C306.285 61.6049 302.245 63.7763 297.843 64.6634C293.44 65.5504 288.874 65.1132 284.72 63.4072C280.567 61.7011 277.013 58.8027 274.508 55.0786C272.003 51.3545 270.66 46.9719 270.648 42.4849C270.634 39.5042 271.21 36.5503 272.342 33.7924C273.474 31.0346 275.14 28.5271 277.244 26.4138C279.348 24.3006 281.848 22.623 284.603 21.4775C287.357 20.332 290.31 19.741 293.294 19.7384V19.7384ZM293.294 56.9272C296.17 56.9431 298.987 56.1045 301.386 54.518C303.785 52.9315 305.658 50.6685 306.767 48.0165C307.876 45.3644 308.171 42.4429 307.615 39.6228C307.06 36.8026 305.677 34.2112 303.645 32.1773C301.612 30.1435 299.02 28.759 296.198 28.1998C293.377 27.6405 290.452 27.9315 287.796 29.036C285.14 30.1405 282.873 32.0086 281.281 34.4032C279.69 36.7977 278.847 39.6107 278.859 42.4849C278.885 46.3037 280.414 49.9589 283.115 52.6611C285.815 55.3634 289.472 56.8957 293.294 56.9272V56.9272Z" fill="white"/>
<path d="M41.0359 0C32.9197 0 24.9859 2.40461 18.2376 6.90974C11.4893 11.4149 6.22959 17.8182 3.12369 25.31C0.0177801 32.8017 -0.794866 41.0455 0.78851 48.9987C2.37189 56.9519 6.28017 64.2574 12.0191 69.9914C17.7581 75.7253 25.07 79.6302 33.0302 81.2122C40.9903 82.7942 49.2413 81.9822 56.7396 78.879C64.2379 75.7759 70.6468 70.5208 75.1559 63.7784C79.665 57.036 82.0717 49.109 82.0717 41C82.0717 30.1261 77.7483 19.6976 70.0526 12.0086C62.3568 4.31963 51.9192 0 41.0359 0V0ZM41.0359 73.9966C34.5477 73.9966 28.2053 72.0743 22.8106 68.4728C17.4159 64.8714 13.2113 59.7525 10.7284 53.7634C8.24548 47.7744 7.59584 41.1843 8.86161 34.8264C10.1274 28.4685 13.2517 22.6284 17.8395 18.0446C22.4273 13.4608 28.2725 10.3392 34.636 9.0745C40.9995 7.80983 47.5954 8.4589 53.5896 10.9396C59.5839 13.4204 64.7072 17.6213 68.3119 23.0113C71.9165 28.4013 73.8404 34.7382 73.8404 41.2206C73.8404 45.5248 72.9919 49.7869 71.3433 53.7634C69.6947 57.74 67.2784 61.3532 64.2322 64.3967C61.186 67.4402 57.5697 69.8545 53.5896 71.5016C49.6096 73.1488 45.3438 73.9966 41.0359 73.9966Z" fill="white"/>
<path d="M41.0359 12.657C35.376 12.653 29.842 14.3266 25.1343 17.4658C20.4265 20.6051 16.7566 25.0691 14.5888 30.2929C12.421 35.5167 11.8527 41.2656 12.956 46.8121C14.0592 52.3587 16.7843 57.4536 20.7865 61.4523C24.7887 65.451 29.8881 68.1738 35.4395 69.2761C40.9909 70.3783 46.7448 69.8106 51.9732 67.6447C57.2016 65.4787 61.6694 61.812 64.8114 57.1084C67.9535 52.4047 69.6285 46.8756 69.6245 41.2206C69.6139 33.6483 66.5985 26.3892 61.2394 21.0348C55.8803 15.6804 48.6148 12.6676 41.0359 12.657V12.657ZM35.3343 53.1355C32.1129 53.1355 29.0235 51.8569 26.7457 49.5811C24.4678 47.3052 23.1882 44.2185 23.1882 40.9999C23.1882 37.7814 24.4678 34.6947 26.7457 32.4188C29.0235 30.143 32.1129 28.8644 35.3343 28.8644C35.8827 28.8644 36.4087 29.0821 36.7965 29.4696C37.1843 29.857 37.4021 30.3825 37.4021 30.9305C37.4021 31.4784 37.1843 32.0039 36.7965 32.3914C36.4087 32.7788 35.8827 32.9965 35.3343 32.9965C33.746 32.9965 32.1934 33.4671 30.8728 34.3487C29.5522 35.2304 28.5229 36.4834 27.9151 37.9495C27.3073 39.4156 27.1482 41.0289 27.4581 42.5853C27.768 44.1417 28.5328 45.5714 29.6559 46.6935C30.779 47.8156 32.2099 48.5797 33.7676 48.8893C35.3254 49.1989 36.9401 49.04 38.4074 48.4327C39.8748 47.8255 41.129 46.7971 42.0114 45.4776C42.8938 44.1582 43.3648 42.6069 43.3648 41.02C43.3648 40.4721 43.5827 39.9465 43.9705 39.5591C44.3582 39.1716 44.8842 38.954 45.4326 38.954C45.9811 38.954 46.507 39.1716 46.8948 39.5591C47.2826 39.9465 47.5005 40.4721 47.5005 41.02C47.5112 42.6174 47.2036 44.201 46.5955 45.6784C45.9874 47.1557 45.091 48.4974 43.9586 49.6251C42.8261 50.7528 41.4804 51.644 39.9997 52.2466C38.519 52.8493 36.9331 53.1515 35.3343 53.1355V53.1355ZM46.7376 53.1355C46.1892 53.1355 45.6632 52.9178 45.2754 52.5303C44.8876 52.1429 44.6697 51.6174 44.6697 51.0694C44.6697 50.5215 44.8876 49.996 45.2754 49.6085C45.6632 49.221 46.1892 49.0034 46.7376 49.0034C48.3259 49.0034 49.8785 48.5328 51.1991 47.6512C52.5197 46.7695 53.549 45.5164 54.1568 44.0503C54.7646 42.5842 54.9236 40.971 54.6138 39.4146C54.3039 37.8582 53.5391 36.4285 52.416 35.3064C51.2929 34.1843 49.862 33.4202 48.3043 33.1106C46.7465 32.801 45.1318 32.9599 43.6645 33.5672C42.1971 34.1744 40.9429 35.2028 40.0605 36.5223C39.1781 37.8417 38.7071 39.393 38.7071 40.9799C38.7071 41.5278 38.4892 42.0533 38.1014 42.4408C37.7136 42.8283 37.1877 43.0459 36.6393 43.0459C36.0908 43.0459 35.5649 42.8283 35.1771 42.4408C34.7893 42.0533 34.5714 41.5278 34.5714 40.9799C34.5515 38.5755 35.2469 36.2195 36.5694 34.2106C37.8919 32.2018 39.7818 30.6308 41.9994 29.6969C44.217 28.763 46.6623 28.5083 49.025 28.9652C51.3877 29.422 53.5613 30.5698 55.27 32.263C56.9787 33.9561 58.1455 36.1182 58.6224 38.4749C59.0992 40.8317 58.8646 43.2769 57.9484 45.5002C57.0321 47.7235 55.4754 49.6248 53.4759 50.9627C51.4763 52.3007 49.1241 53.015 46.7175 53.0151L46.7376 53.1355Z" fill="white"/>
</g>
<defs>
<clipPath id="clip0">
<rect width="316" height="82" fill="white"/>
</clipPath>
</defs>
</svg>
